<svg width="49" height="67" fill="none" xmlns="http://www.w3.org/2000/svg"><path opacity=".5" d="M21 38H5c-2.2 0-4-1.8-4-4V18c0-2.2 1.8-4 4-4h16c2.2 0 4 1.8 4 4v16c0 2.2-1.8 4-4 4z" fill="#C3A99C" fill-opacity=".85"/><path d="M30.773 34.719l-.562.32-2.905-3.66a1.029 1.029 0 00-1.314-.256l-.859.487-8.167-14.39a3.598 3.598 0 10-1.79 1.016l8.168 14.392-.858.487a1.029 1.029 0 00-.455 1.259l1.652 4.369-.563.32a1.028 1.028 0 00-.387 1.402l13.214 23.283a5.43 5.43 0 009.444-5.36L32.176 35.107a1.027 1.027 0 00-1.403-.387zM13.03 15.49a1.54 1.54 0 112.676-1.518 1.54 1.54 0 01-2.675 1.518zm11.238 18.982l1.974-1.12 2.157 2.716-2.903 1.647-1.228-3.243zm19.334 24.936a3.37 3.37 0 11-5.863 3.328L25.03 40.345l5.864-3.328 12.708 22.392zM11.643 9.926a1.029 1.029 0 00.387-1.403l-1.388-2.447a1.03 1.03 0 00-1.79 1.016L10.24 9.54a1.03 1.03 0 001.403.387zm10.366-.714l-2.448 1.389a1.029 1.029 0 101.017 1.79l2.447-1.389a1.03 1.03 0 00-1.016-1.79zM6.731 20.25l2.447-1.389a1.03 1.03 0 00-1.016-1.79L5.715 18.46a1.03 1.03 0 001.016 1.79zM18.205 3.566a1.025 1.025 0 00.484-.622l.196-.71a1.03 1.03 0 10-1.984-.546l-.196.708a1.03 1.03 0 001.5 1.17zM16.621 9.31a1.024 1.024 0 00.484-.622l.545-1.975a1.03 1.03 0 00-1.984-.547l-.545 1.973a1.03 1.03 0 001.5 1.17zM10.05 26.518l-.195.71a1.03 1.03 0 001.984.547l.196-.71a1.03 1.03 0 00-1.984-.547z" fill="#4D545D"/><path d="M13.619 21.322a1.03 1.03 0 00-1.984-.548l-.545 1.976a1.029 1.029 0 101.984.548l.545-1.976zm13.085-4.256a1.03 1.03 0 00-.547 1.984l.71.196a1.03 1.03 0 10.546-1.984l-.71-.196zm-5.744-1.585a1.03 1.03 0 10-.546 1.984l1.975.546a1.029 1.029 0 10.547-1.985l-1.975-.545zM2.036 12.395a1.03 1.03 0 10.55-1.985l-.71-.196a1.027 1.027 0 00-1.265.719 1.029 1.029 0 00.718 1.265l.707.197zm5.743 1.585a1.03 1.03 0 00.547-1.984L6.35 11.45a1.027 1.027 0 00-1.266.718 1.029 1.029 0 00.718 1.266l1.976.545zM29.68 41.707a1.03 1.03 0 00-.387 1.403l1.36 2.396a1.03 1.03 0 101.79-1.016l-1.36-2.396a1.03 1.03 0 00-1.403-.387z" fill="#4D545D"/></svg>