<svg width="48" height="47" fill="none" xmlns="http://www.w3.org/2000/svg"><g clip-path="url(#clip0)"><path opacity=".5" d="M42 47H28.286c-1.886 0-3.429-1.538-3.429-3.418V29.909c0-1.88 1.543-3.418 3.429-3.418H42a3.433 3.433 0 013.428 3.418v13.673A3.433 3.433 0 0142 47z" fill="#C3A99C" fill-opacity=".85"/><path d="M32.486 44.437c-2.4 0-4.457-1.624-4.972-3.931l-1.885-7.52c-.258-.94-1.029-1.282-1.629-1.282-.6 0-1.457.342-1.629 1.282l-1.885 7.52c-.6 2.307-2.657 3.93-4.972 3.93-2.4 0-4.543-1.709-5.057-4.101L8.314 29.824c-.6-2.991-1.8-5.47-3.428-7.52C2.57 19.484 1.457 15.98 1.8 12.39 2.314 5.982 7.714.598 14.229.086a13.95 13.95 0 015.657.683c2.657.94 5.571.94 8.228 0 1.8-.598 3.772-.854 5.657-.683 6.515.512 11.915 5.896 12.429 12.39.343 3.59-.771 7.093-3.086 9.913-1.714 2.051-2.828 4.53-3.428 7.52L37.543 40.42a5.152 5.152 0 01-5.057 4.017zM24 29.995c1.629 0 2.914 1.025 3.343 2.649l1.8 7.52a3.401 3.401 0 003.343 2.649c1.628 0 3-1.111 3.343-2.735l2.142-10.51c.686-3.248 1.972-5.982 3.772-8.29 1.971-2.392 3-5.469 2.657-8.63-.514-5.64-5.143-10.34-10.886-10.853-1.714-.171-3.343.085-4.971.598-2.914 1.025-6.172 1.025-9.257 0-1.629-.513-3.257-.77-4.972-.598C8.657 2.307 3.943 6.922 3.43 12.648c-.258 3.076.685 6.152 2.742 8.63 1.886 2.222 3.172 5.042 3.772 8.29l2.143 10.51c.343 1.539 1.714 2.735 3.343 2.735 1.542 0 2.914-1.111 3.342-2.65l1.886-7.52c.429-1.623 1.714-2.648 3.343-2.648z" fill="#4D545D"/><path d="M24 8.546c-5.4 0-9.686-2.564-9.857-2.65-.429-.256-.514-.768-.343-1.196.257-.427.771-.513 1.2-.342 0 0 4.114 2.479 9 2.479s8.914-2.393 9-2.479c.429-.17.943-.085 1.2.342.171.428.086.94-.343 1.197-.171.085-4.457 2.649-9.857 2.649zm5.143 14.527H18.857a3.433 3.433 0 01-3.428-3.419v-5.127a3.433 3.433 0 013.428-3.418h10.286a3.433 3.433 0 013.428 3.418v5.127a3.433 3.433 0 01-3.428 3.419zM18.857 12.818c-.943 0-1.714.77-1.714 1.71v5.126c0 .94.771 1.71 1.714 1.71h10.286c.943 0 1.714-.77 1.714-1.71v-5.127c0-.94-.771-1.709-1.714-1.709H18.857z" fill="#4D545D"/><path d="M47.143 17.945H31.714c-.514 0-.857-.341-.857-.854 0-.513.343-.855.857-.855h15.429c.514 0 .857.342.857.855 0 .513-.343.854-.857.854zm-30.857 0H.857c-.514 0-.857-.341-.857-.854 0-.513.343-.855.857-.855h15.429c.514 0 .857.342.857.855 0 .513-.343.854-.857.854zm12 0h-8.572c-.514 0-.857-.341-.857-.854 0-.513.343-.855.857-.855h8.572c.514 0 .857.342.857.855 0 .513-.343.854-.857.854z" fill="#4D545D"/><path d="M21.429 19.655c-.515 0-.858-.342-.858-.855v-3.418c0-.513.343-.855.858-.855.514 0 .857.342.857.855V18.8c0 .513-.343.855-.857.855zm5.142 0c-.514 0-.857-.342-.857-.855v-3.418c0-.513.343-.855.857-.855.515 0 .858.342.858.855V18.8c0 .513-.343.855-.858.855z" fill="#4D545D"/></g><defs><clipPath id="clip0"><path fill="#fff" d="M0 0h48v47H0z"/></clipPath></defs></svg>