<svg width="52" height="52" fill="none" xmlns="http://www.w3.org/2000/svg"><g clip-path="url(#clip0)"><path opacity=".5" d="M47 48H31c-2.2 0-4-1.8-4-4V28c0-2.2 1.8-4 4-4h16c2.2 0 4 1.8 4 4v16c0 2.2-1.8 4-4 4z" fill="#C3A99C" fill-opacity=".85"/><path d="M35.9 52c-2.8 0-5.2-1.9-5.8-4.6l-2.2-8.8c-.3-1.1-1.2-1.5-1.9-1.5s-1.7.4-1.9 1.5l-2.2 8.8c-.3 1.3-1 2.4-2.1 3.3-1.1.8-2.4 1.3-3.7 1.3-2.8 0-5.3-2-5.9-4.8L7.7 34.9c-.7-3.5-2.1-6.4-4-8.8C1 22.9-.3 18.7.1 14.5.7 7 7 .7 14.6.1c2.3-.2 4.5.1 6.6.8C24.3 2 27.7 2 30.8.9c2.1-.7 4.3-1 6.6-.8C45 .7 51.3 7 51.9 14.6c.1.8.1 1.7 0 2.5 0 .3-.2.7-.5.8-.3.2-.7.2-1 0L39 11.2l-11 6.4v12.9l11 6.4 3.7-2.1c.3-.2.8-.2 1.1.1.3.2.5.6.4 1l-2.3 11.5c-.3 1.4-1 2.6-2.1 3.4-1.2.7-2.5 1.2-3.9 1.2zM26 35.1c1.9 0 3.4 1.2 3.9 3.1L32 47c.4 1.8 2 3 3.9 3 .9 0 1.8-.3 2.5-.9.7-.6 1.2-1.4 1.4-2.3l1.9-9.3-2.2 1.3c-.3.2-.7.2-1 0l-12-7c-.3-.1-.5-.4-.5-.8V17c0-.4.2-.7.5-.9l12-7c.3-.2.7-.2 1 0L50 15.2v-.5C49.4 8.1 44 2.6 37.3 2c-2-.2-3.9.1-5.8.7-3.6 1.3-7.4 1.3-11 .1-1.9-.6-3.8-.9-5.8-.7-6.6.5-12.1 6-12.6 12.6-.4 3.7.7 7.3 3.1 10.2 2.2 2.6 3.7 5.9 4.4 9.7l2.5 12.3c.4 1.8 2 3.2 3.9 3.2.9 0 1.8-.3 2.5-.8.7-.6 1.2-1.3 1.4-2.2l2.2-8.8c.5-2 2-3.2 3.9-3.2z" fill="#4D545D"/><path d="M26 10c-6.3 0-11.3-3-11.5-3.1-.5-.3-.6-.9-.4-1.4.3-.5.9-.6 1.4-.4 0 0 4.8 2.9 10.5 2.9s10.4-2.8 10.5-2.9c.5-.2 1.1-.1 1.4.4.2.5.1 1.1-.4 1.4C37.3 7 32.3 10 26 10zm13 25c-.6 0-1-.4-1-1v-6.5c0-.6.4-1 1-1s1 .4 1 1V34c0 .6-.4 1-1 1zm0-13.5c-.6 0-1-.4-1-1V14c0-.6.4-1 1-1s1 .4 1 1v6.5c0 .6-.4 1-1 1z" fill="#4D545D"/><path d="M39 19c-.2 0-.5-.1-.7-.3l-2.1-2c-.4-.4-.4-1 0-1.4.4-.4 1-.4 1.4 0l1.4 1.3 1.4-1.3c.4-.4 1-.4 1.4 0 .4.4.4 1 0 1.4l-2.1 2c-.2.2-.5.3-.7.3zm2.1 14c-.2 0-.5-.1-.7-.3L39 31.4l-1.4 1.3c-.4.4-1 .4-1.4 0-.4-.4-.4-1 0-1.4l2.1-2c.4-.4 1-.4 1.4 0l2.1 2c.4.4.4 1 0 1.4-.2.2-.5.3-.7.3zm6.9-3c-.2 0-.3 0-.5-.1l-5.9-3.3c-.5-.3-.7-.9-.4-1.4.3-.5.9-.7 1.4-.4l5.9 3.3c.5.3.7.9.4 1.4-.2.3-.5.5-.9.5zm-12.1-6.7c-.2 0-.3 0-.5-.1l-5.9-3.3c-.5-.3-.7-.9-.4-1.4.3-.5.9-.7 1.4-.4l5.9 3.3c.5.3.7.9.4 1.4-.2.3-.6.5-.9.5z" fill="#4D545D"/><path d="M30.8 22.7c-.4 0-.9-.3-1-.8-.1-.5.2-1.1.7-1.2l1.9-.5-.5-1.8c-.1-.5.2-1.1.7-1.2.5-.1 1.1.2 1.2.7l.8 2.7c.1.3 0 .5-.1.8-.1.2-.4.4-.6.5l-2.9.8h-.2zm14.4 8c-.4 0-.8-.3-1-.7l-.8-2.7c-.1-.3 0-.5.1-.8.1-.2.4-.4.6-.5l2.8-.7c.5-.1 1.1.2 1.2.7.1.5-.2 1.1-.7 1.2l-1.9.5.5 1.8c.1.5-.2 1.1-.7 1.2h-.1zM30 30c-.4 0-.7-.2-.9-.5-.3-.5-.1-1.1.4-1.4l5.9-3.3c.5-.3 1.1-.1 1.4.4.3.5.1 1.1-.4 1.4l-5.9 3.3c-.2.1-.3.1-.5.1zm12.1-6.7c-.4 0-.7-.2-.9-.5-.3-.5-.1-1.1.4-1.4l5.9-3.3c.5-.3 1.1-.1 1.4.4.3.5.1 1.1-.4 1.4l-5.9 3.3c-.2 0-.3.1-.5.1z" fill="#4D545D"/><path d="M47.2 22.7h-.3l-2.8-.7c-.3-.1-.5-.2-.6-.5-.1-.2-.2-.5-.1-.8l.8-2.7c.1-.5.7-.8 1.2-.7.5.1.8.7.7 1.2l-.5 1.8 1.9.5c.5.1.9.7.7 1.2-.1.4-.5.7-1 .7zm-14.4 8h-.3c-.5-.1-.8-.7-.7-1.2l.5-1.8-1.9-.5c-.5-.1-.9-.7-.7-1.2.1-.5.7-.9 1.2-.7l2.8.7c.3.1.5.2.6.5.1.2.2.5.1.8l-.6 2.7c-.1.4-.5.7-1 .7zm6.2-2.2c-.2 0-.3 0-.5-.1l-3-1.7c-.3-.2-.5-.5-.5-.9v-3.5c0-.4.2-.7.5-.9l3-1.7c.3-.2.7-.2 1 0l3 1.7c.3.2.5.5.5.9v3.5c0 .4-.2.7-.5.9l-3 1.7c-.2 0-.3.1-.5.1zm-2-3.3l2 1.2 2-1.2v-2.3l-2-1.2-2 1.2v2.3z" fill="#4D545D"/><path d="M39 39c-.2 0-.3 0-.5-.1l-12-7c-.3-.2-.5-.5-.5-.9V17c0-.4.2-.7.5-.9l12-7c.3-.2.7-.2 1 0l12 7c.3.2.5.5.5.9v14c0 .4-.2.7-.5.9l-12 7c-.2.1-.3.1-.5.1zm-11-8.6l11 6.4 11-6.4V17.6l-11-6.4-11 6.4v12.8z" fill="#4D545D"/></g><defs><clipPath id="clip0"><path fill="#fff" d="M0 0h52v52H0z"/></clipPath></defs></svg>