<svg width="24" height="20" fill="none" xmlns="http://www.w3.org/2000/svg"><path d="M20.874 4.16c-.089-.347-.341-.61-.63-.69C19.736 3.327 17.25 3 12 3s-7.733.327-8.247.47c-.285.08-.537.342-.627.69-.127.495-.46 2.569-.46 5.84s.333 5.343.46 5.84c.089.347.341.61.628.689C4.267 16.673 6.75 17 12 17s7.734-.327 8.247-.47c.285-.08.537-.342.627-.69.127-.495.46-2.573.46-5.84s-.333-5.343-.46-5.84zm2.26-.579c.533 2.079.533 6.419.533 6.419s0 4.34-.534 6.419c-.296 1.15-1.163 2.053-2.26 2.359-1.994.555-8.873.555-8.873.555s-6.875 0-8.872-.555c-1.103-.31-1.969-1.213-2.261-2.359C.333 14.34.333 10 .333 10s0-4.34.534-6.419c.296-1.15 1.163-2.053 2.26-2.359C5.126.667 12 .667 12 .667s6.879 0 8.872.555c1.103.31 1.969 1.213 2.262 2.359zM9.667 14.083V5.917l7 4.083-7 4.083z" fill="#4D545D"/></svg>