<svg width="34" height="34" fill="none" xmlns="http://www.w3.org/2000/svg"><path d="M17 12.75a4.25 4.25 0 100 8.499 4.25 4.25 0 000-8.5zm0-2.834a7.083 7.083 0 110 14.166 7.083 7.083 0 010-14.166zm9.208-.354a1.77 1.77 0 11-3.542 0 1.77 1.77 0 013.542 0zM17 5.666c-3.505 0-4.078.01-5.708.083-1.11.052-1.856.2-2.547.47a4.089 4.089 0 00-1.53.996 4.094 4.094 0 00-.998 1.53c-.269.694-.417 1.438-.468 2.547-.074 1.564-.083 2.11-.083 5.708 0 3.505.01 4.077.083 5.707.052 1.11.2 1.856.468 2.546a4.14 4.14 0 00.995 1.53c.477.476.92.76 1.53.996.7.27 1.445.42 2.55.472 1.564.073 2.11.082 5.708.082 3.505 0 4.077-.01 5.707-.082 1.108-.053 1.855-.201 2.546-.47a4.138 4.138 0 001.53-.994c.478-.477.762-.92.997-1.53.27-.698.42-1.445.47-2.55.075-1.564.083-2.11.083-5.707 0-3.505-.01-4.078-.082-5.708-.053-1.108-.201-1.856-.47-2.547a4.124 4.124 0 00-.996-1.53 4.086 4.086 0 00-1.53-.998c-.695-.269-1.44-.417-2.548-.468-1.564-.074-2.11-.083-5.707-.083zm0-2.833c3.849 0 4.329.014 5.84.085 1.508.07 2.535.307 3.439.659.935.36 1.723.847 2.51 1.633a6.955 6.955 0 011.634 2.51c.35.903.588 1.931.658 3.44.067 1.51.085 1.99.085 5.84 0 3.849-.014 4.329-.085 5.84-.07 1.508-.308 2.535-.658 3.439a6.918 6.918 0 01-1.634 2.51 6.963 6.963 0 01-2.51 1.634c-.903.35-1.931.588-3.44.658-1.51.067-1.99.085-5.84.085-3.848 0-4.329-.014-5.839-.085-1.509-.07-2.536-.308-3.44-.658a6.927 6.927 0 01-2.51-1.634 6.948 6.948 0 01-1.633-2.51c-.352-.903-.588-1.931-.659-3.44-.067-1.51-.085-1.99-.085-5.84 0-3.848.014-4.329.085-5.839.07-1.51.307-2.536.659-3.44A6.913 6.913 0 015.21 5.21a6.937 6.937 0 012.51-1.633c.904-.352 1.93-.588 3.44-.659 1.51-.067 1.99-.085 5.84-.085z" fill="#4D545D"/></svg>