<svg width="30" height="24" fill="none" xmlns="http://www.w3.org/2000/svg"><path d="M25.775 4.91c-.108-.423-.414-.741-.764-.839-.619-.174-3.636-.57-10.011-.57-6.375 0-9.39.396-10.015.57-.345.096-.651.415-.76.839-.155.6-.559 3.118-.559 7.09s.404 6.488.559 7.092c.107.42.413.74.762.836.623.175 3.638.572 10.013.572s9.39-.397 10.014-.57c.346-.097.652-.416.76-.84.155-.6.559-3.123.559-7.09 0-3.967-.404-6.488-.558-7.09zm2.744-.704c.647 2.524.647 7.794.647 7.794s0 5.27-.647 7.795c-.36 1.395-1.412 2.493-2.746 2.864-2.42.674-10.773.674-10.773.674s-8.349 0-10.774-.674c-1.339-.377-2.39-1.473-2.746-2.864C.833 17.27.833 12 .833 12s0-5.27.647-7.794C1.84 2.81 2.893 1.712 4.226 1.34 6.65.667 15 .667 15 .667s8.352 0 10.773.674c1.34.377 2.39 1.473 2.746 2.865zM12.166 16.958V7.042l8.5 4.958-8.5 4.958z" fill="#4D545D"/></svg>