<svg width="47" height="60" fill="none" xmlns="http://www.w3.org/2000/svg"><g clip-path="url(#clip0)"><path opacity=".5" d="M20 45H4c-2.2 0-4-1.8-4-4V25c0-2.2 1.8-4 4-4h16c2.2 0 4 1.8 4 4v16c0 2.2-1.8 4-4 4z" fill="#C3A99C" fill-opacity=".85"/><path d="M36.3 34H13.7c-2.2 0-4.3-1.4-5-3.5-.2-.6-.4-1.4-.7-2.4-.5-1.9-1.2-4.5-1.9-5.4-2.3-2.9-3.4-6.5-3-10.3C3.7 5.8 8.9.7 15.4.1c1.9-.2 3.8.1 5.7.7 2.6.9 5.4.9 8 0 1.8-.6 3.7-.9 5.7-.7 6.4.6 11.6 5.8 12.3 12.3.4 3.7-.7 7.4-3 10.3-.7.9-1.4 3.5-1.9 5.4-.3 1-.5 1.8-.7 2.4-.9 2.1-2.9 3.5-5.2 3.5zM16.6 2h-1.1C10.1 2.5 5.6 7 5 12.6c-.3 3.2.6 6.4 2.6 8.8 1 1.2 1.7 3.8 2.3 6.2.2.9.5 1.7.6 2.2.5 1.3 1.7 2.2 3.1 2.2h22.6c1.4 0 2.6-.9 3.1-2.2.2-.5.4-1.3.6-2.2.6-2.3 1.3-4.9 2.3-6.2 2-2.5 2.9-5.6 2.6-8.8-.4-5.5-4.9-10.1-10.3-10.5-1.7-.2-3.3 0-4.8.6-3 1.1-6.3 1.1-9.3 0-1.3-.5-2.5-.7-3.8-.7z" fill="#4D545D"/><path d="M25 8.7c-5.3 0-9.6-2.6-9.8-2.7-.5-.3-.6-.9-.3-1.4.3-.5.9-.6 1.4-.3 0 0 4 2.4 8.7 2.4 4.7 0 8.7-2.4 8.7-2.4.5-.3 1.1-.1 1.4.3.3.4.1 1.1-.3 1.4-.2.2-4.5 2.7-9.8 2.7zM29 60h-8c-.4 0-.7-.2-.9-.5l-5-9.5c-.1-.1-.1-.3-.1-.4l-1.1-16.5c0-.3.1-.5.3-.8.2-.2.5-.3.7-.3h20.2c.3 0 .5.1.7.3.2.2.3.5.3.8L35 49.5c0 .1 0 .3-.1.4l-5 9.5c-.2.4-.6.6-.9.6zm-7.3-2h6.7l4.6-8.8L34 34H16l1 15.2 4.7 8.8z" fill="#4D545D"/><path d="M37 40s-.1 0 0 0l-24.1-2c-.6 0-1-.5-.9-1.1 0-.5.5-1 1.1-.9l24 2c.6 0 1 .5.9 1.1 0 .5-.5.9-1 .9zm0 5s-.1 0 0 0l-24.1-2c-.6 0-1-.5-.9-1.1 0-.5.5-1 1.1-.9l24 2c.6 0 1 .5.9 1.1 0 .5-.5.9-1 .9zm-1 5s-.1 0 0 0l-22.1-2c-.5-.1-1-.5-.9-1.1.1-.6.5-.9 1.1-.9l22 2c.5.1 1 .5.9 1.1-.1.5-.5.9-1 .9zm-2 5h-.1l-19-2c-.5-.1-.9-.6-.9-1.1.1-.5.6-.9 1.1-.9l19 2c.5.1.9.6.9 1.1-.1.5-.5.9-1 .9z" fill="#4D545D"/></g><defs><clipPath id="clip0"><path fill="#fff" d="M0 0h47v60H0z"/></clipPath></defs></svg>