<svg width="79" height="65" fill="none" xmlns="http://www.w3.org/2000/svg"><path opacity=".5" d="M75.013 36.167h-12.81A3.208 3.208 0 0159 32.972V20.194A3.208 3.208 0 0162.203 17h12.81a3.208 3.208 0 013.202 3.194v12.778a3.208 3.208 0 01-3.202 3.195z" fill="#C3A99C" fill-opacity=".85"/><path d="M55.168 10.354h-3.222c-.48 0-.785.3-.785.632v10.26c0 .426.513.647 1.042.647.513 0 1.041-.22 1.041-.647v-3.662h1.796c2.115 0 3.766-.994 3.766-3.583v-.095c0-2.589-1.602-3.552-3.638-3.552zm1.554 3.805c0 1.23-.64 1.815-1.682 1.815h-1.795v-3.82h1.795c1.041 0 1.682.584 1.682 1.815v.19zm-18.944.207c-3.042-2.997-7.088-4.647-11.39-4.647-4.304 0-8.35 1.65-11.392 4.647a.916.916 0 000 1.31.95.95 0 001.33 0c2.687-2.648 6.26-4.105 10.061-4.105 3.8 0 7.374 1.457 10.062 4.104a.947.947 0 001.329.001.916.916 0 000-1.31z" fill="#4D545D"/><path d="M33.9 18.186c-4.143-4.08-10.883-4.08-15.025 0a.916.916 0 000 1.31.95.95 0 001.33 0c3.409-3.358 8.956-3.358 12.365 0 .183.18.424.27.664.27.241 0 .482-.09.665-.27a.916.916 0 000-1.31zm-3.818 3.759c-2.037-2.006-5.352-2.006-7.39 0a.916.916 0 000 1.31.95.95 0 001.33 0 3.385 3.385 0 014.73 0 .95.95 0 00.665.27.95.95 0 00.665-.27.916.916 0 000-1.31zM46.267 39.98c-.407-.22-.808-.462-1.193-.718l-6.219-4.138a11.456 11.456 0 00-6.367-1.92H21.073c-3.03 0-5.88 1.16-8.027 3.267a15.225 15.225 0 01-3.736 2.692A2.397 2.397 0 007.99 41.3c0 1.329 1.098 2.41 2.447 2.41h3.892c.519 0 .94-.415.94-.926a.933.933 0 00-.94-.926h-3.892a.563.563 0 01-.566-.558c0-.208.117-.397.305-.494a17.104 17.104 0 004.197-3.023 9.508 9.508 0 016.7-2.727h2.556v6.802h-3.124a.933.933 0 00-.94.926c0 .511.421.926.94.926h25.781c.773 0 1.402-.62 1.402-1.38a2.68 2.68 0 00-1.42-2.35zM25.51 41.858v-6.801h6.978c1.902 0 3.74.554 5.315 1.602l6.219 4.137c.431.288.882.559 1.34.806a.871.871 0 01.291.256H25.51zm2.33 3.26h-2.905c-.52 0-.94.414-.94.926 0 .511.42.926.94.926h2.904c.52 0 .94-.415.94-.926a.933.933 0 00-.94-.926z" fill="#4D545D"/><path d="M65.189 44.34l-.297-.485a7.738 7.738 0 00-5.108-3.534l-2.428-.476V27.728h6.282c1.294 0 2.346-1.036 2.346-2.31V7.384c0-1.274-1.052-2.31-2.346-2.31h-18.31c-1.294 0-2.346 1.037-2.346 2.31v6.841c0 .511.42.926.94.926s.94-.415.94-.926v-6.84c0-.253.209-.459.465-.459H63.64c.256 0 .465.206.465.458v18.034a.462.462 0 01-.465.458H45.327a.462.462 0 01-.465-.458v-5.173a.933.933 0 00-.94-.926c-.52 0-.94.415-.94.926v5.173c0 1.274 1.052 2.31 2.345 2.31h7.123v11.157l-1.247-.245c-1.723-.337-3.402-1.36-4.515-2.102l-6.219-4.137a14.361 14.361 0 00-7.98-2.406H21.073c-3.799 0-7.372 1.454-10.063 4.094a12.406 12.406 0 01-6.198 3.295l-1.35.279C1.457 38.075 0 39.843 0 41.861v8.968a2.71 2.71 0 001.634 2.476l3.745 1.64a6.078 6.078 0 001.712 3.18 6.267 6.267 0 004.41 1.797 6.268 6.268 0 004.411-1.797 6.083 6.083 0 001.59-2.677h31.226a6.09 6.09 0 001.59 2.677 6.245 6.245 0 004.411 1.8 6.245 6.245 0 004.41-1.8 6.083 6.083 0 001.59-2.677h1.785c1.922 0 3.486-1.54 3.486-3.433v-4.803c0-1.013-.28-2.006-.811-2.873zM54.33 27.728h1.145v11.749l-1.145-.224V27.728zM14.582 56.817a4.363 4.363 0 01-3.08 1.257 4.362 4.362 0 01-3.081-1.257A4.25 4.25 0 017.538 52l.018-.038a4.118 4.118 0 01.35-.602l.064-.091c.025-.034.051-.068.078-.101l.061-.079.096-.111.055-.063c.048-.052.097-.104.148-.154l.013-.014.03-.027c.042-.042.086-.083.13-.123l.035-.03a4.35 4.35 0 01.134-.113l.013-.01a4.418 4.418 0 015.484.005l.005.005c.049.039.096.08.144.121l.025.022a4.37 4.37 0 01.326.322l.068.078.082.096a4.482 4.482 0 01.234.315l.017.024a4.25 4.25 0 01-.566 5.384zm43.228 0a4.363 4.363 0 01-3.081 1.257 4.362 4.362 0 01-3.081-1.257 4.249 4.249 0 01-.565-5.384l.016-.024a4.22 4.22 0 01.235-.315l.08-.095.07-.079a4.362 4.362 0 013.245-1.428 4.362 4.362 0 013.245 1.428l.069.078a4.044 4.044 0 01.168.207l.047.062a4.002 4.002 0 01.117.166 4.25 4.25 0 01-.565 5.384zm6.31-4.801c0 .872-.721 1.581-1.607 1.581h-1.547a6.011 6.011 0 00-1.385-3.675l-.017-.021a6.545 6.545 0 00-.166-.19l-.043-.049a6.266 6.266 0 00-.184-.19 6.224 6.224 0 00-2.918-1.648 6.372 6.372 0 00-2.75-.066 6.224 6.224 0 00-3.185 1.68l-.03.033a6.423 6.423 0 00-.186.192l-.041.046a6.557 6.557 0 00-.167.192l-.016.02a6.013 6.013 0 00-1.386 3.677H17.738a6.012 6.012 0 00-1.389-3.68l-.012-.016a6.523 6.523 0 00-.175-.201l-.033-.037a6.237 6.237 0 00-1.195-1.01 6.302 6.302 0 00-3.433-1.012 6.268 6.268 0 00-4.613 2.007l-.057.063a6.418 6.418 0 00-.33.4 6.101 6.101 0 00-.37.544l-.007.014c-.05.082-.097.166-.142.251l-.004.007a6.04 6.04 0 00-.65 1.968l-2.93-1.282a.858.858 0 01-.517-.784v-8.968c0-1.148.828-2.152 1.968-2.387l1.35-.279a14.29 14.29 0 007.14-3.795 12.395 12.395 0 018.735-3.554h11.415c2.478 0 4.874.722 6.928 2.088l6.219 4.138c1.248.83 3.145 1.98 5.2 2.383l8.581 1.681a5.854 5.854 0 013.864 2.673l.297.486c.355.578.542 1.241.542 1.917v4.803z" fill="#4D545D"/><path d="M13.52 51.795a2.858 2.858 0 00-2.018-.823c-.763 0-1.48.292-2.019.823a2.772 2.772 0 00-.836 1.988c0 .75.297 1.457.836 1.988.54.53 1.256.823 2.019.823.762 0 1.479-.292 2.018-.823a2.784 2.784 0 000-3.976zm-1.33 2.666a.975.975 0 01-.688.281c-.26 0-.505-.1-.69-.28a.946.946 0 010-1.358.975.975 0 01.69-.28c.26 0 .504.1.688.28a.95.95 0 010 1.357zm44.557-2.666a2.858 2.858 0 00-2.018-.823c-.763 0-1.48.292-2.019.823a2.785 2.785 0 000 3.976c.54.53 1.256.823 2.019.823.762 0 1.479-.292 2.018-.823.54-.531.836-1.237.836-1.988 0-.75-.297-1.457-.836-1.988zm-1.33 2.666a.975.975 0 01-.688.281.98.98 0 01-.689-.28.95.95 0 010-1.357.976.976 0 01.689-.281c.26 0 .505.1.689.28a.946.946 0 010 1.357z" fill="#4D545D"/></svg>