<svg width="55" height="52" fill="none" xmlns="http://www.w3.org/2000/svg"><g clip-path="url(#clip0)"><path opacity=".5" d="M51 29H35c-2.2 0-4-1.8-4-4V9c0-2.2 1.8-4 4-4h16c2.2 0 4 1.8 4 4v16c0 2.2-1.8 4-4 4z" fill="#C3A99C" fill-opacity=".85"/><path d="M36.3 52c-1.4 0-2.9-.4-4.4-.7-1.8-.4-3.8-.9-5.9-.9-2.1 0-4.1.5-5.9.9-3.4.8-7 1.7-8.8-1.9C10.4 47.6 10 45 10 41c0-16 7.2-29 16-29s16 13 16 29c0 3.9-.4 6.6-1.3 8.3-1 2.1-2.6 2.7-4.4 2.7zM26 48.3c2.3 0 4.5.5 6.4 1 3.7.9 5.5 1.2 6.6-.9.6-1.4 1-3.8 1-7.4 0-14.9-6.3-27-14-27S12 26.1 12 41c0 3.6.4 6 1.1 7.4 1.1 2.1 2.9 1.8 6.6.9 1.8-.4 4-1 6.3-1zM3.9 34h-.7c-.4 0-.8-.3-1-.7-.1-.2-.1-.5 0-.7.2-.5.7-.8 1.2-.6h.5c.6 0 1 .4 1 1s-.5 1-1 1zm1.5-10h-.2c-.1 0-.2 0-.3-.1-.4-.1-.7-.5-.7-.9 0-.3.1-.6.3-.7.3-.3.7-.3 1-.2.1-.1.2-.1.3-.1.5.2.7.7.6 1.2-.1.5-.5.8-1 .8zm4.5-9.3c-.2 0-.4-.1-.5-.2l-.1-.1c-.3-.2-.4-.4-.5-.7 0-.3.1-.6.3-.8.3-.3.9-.4 1.3-.1.1 0 .2.1.3.2.4.4.4.9.1 1.3-.3.2-.6.4-.9.4zm-.3-.7l-.3.3.1.1.2-.4zm32.5.6c-.3 0-.6-.1-.8-.4-.3-.4-.3-.9 0-1.3.1-.1.2-.2.3-.2.4-.3.9-.2 1.2.1.2.2.3.5.3.8 0 .3-.2.6-.4.7l-.1.1c-.1.2-.3.2-.5.2zm4.5 9.4c-.4 0-.8-.3-1-.7-.1-.5.1-1 .6-1.2.1 0 .1-.1.2-.1.4-.1.8 0 1 .2.2.2.3.5.3.7 0 .4-.3.8-.7.9-.1 0-.2.1-.3.1 0 .1-.1.1-.1.1z" fill="#4D545D"/><path d="M10.2 50c-3.4 0-6.5-1.2-7.7-6.8-.1-.3 0-.6.2-.8.2-.3.5-.4.8-.4H5c.6 0 1-.4 1-1v-6c0-.6-.4-1-1-1H3.9c-.6 0-1-.4-1-1s.4-1 1-1c.8 0 1.5-.6 1.6-1.4l.5-5.1v-.1c0-.6-.4-1.2-1-1.4-.5-.2-.7-.7-.6-1.2.2-.5.7-.8 1.2-.7h.2c.5 0 .9-.3 1.1-.7l2.7-5.1c.1-.2.2-.4.2-.7 0-.4-.2-.8-.5-1.1-.4-.3-.5-.9-.2-1.3s.9-.5 1.3-.3c.5.3 1.4.2 1.8-.3l3.3-3.9c.3-.4.4-.8.4-1 0-.2 0-.3-.1-.5-.2-.4 0-.9.4-1.2.1-.1.3-.2.4-.2.3-.2.6-.2.9 0 .2.1.4.1.7.1l5.6-.6c.7-.2 1.2-.7 1.2-1.3 0-.6.4-1 1-1s1 .4 1 1 .5 1.1 1.1 1.2l5.6.6c.2 0 .5 0 .7-.1.3-.2.6-.2.9 0 .1.1.3.2.4.2.4.2.6.7.4 1.2-.1.1-.1.3-.1.4 0 .3.1.6.4 1l3.3 3.9c.5.5 1.3.6 1.8.3.4-.3 1-.2 1.3.3.3.4.2 1-.2 1.3-.3.3-.5.7-.5 1.1 0 .2.1.5.2.7l2.7 5.1c.2.4.7.7 1.1.7h.2c.5-.1 1 .2 1.2.7.2.5-.1 1-.6 1.2-.6.3-1 .8-1 1.4v.1l.5 5.2c.1.8.8 1.4 1.6 1.4.6 0 1 .4 1 1s-.4 1-1 1h-1c-.6 0-1 .4-1 1v6c0 .6.4 1 1 1h1.5c.3 0 .6.1.8.4.2.2.3.5.2.8-1.4 6.7-5.7 7.1-9.8 6.7-.3 0-.6-.2-.8-.5-.2-.3-.2-.6 0-.9.7-1.4 1.1-3.8 1.1-7.4 0-14.9-6.3-27-14-27S12 26.1 12 41c0 3.6.4 6 1.1 7.4.1.3.1.6 0 .9-.1.3-.4.5-.8.5-.7.1-1.4.2-2.1.2zm-5.4-6c1 3.3 3 4.1 6 4-.5-1.7-.8-3.9-.8-7 0-16 7.2-29 16-29s16 13 16 29c0 3-.2 5.3-.8 7 2.9.1 4.9-.7 6-4H47c-1.7 0-3-1.3-3-3v-6c0-1 .5-1.9 1.2-2.4-.4-.5-.6-1.1-.7-1.8l-.5-5.1v-.4c0-.6.2-1.3.5-1.8-.5-.3-.9-.7-1.2-1.3l-2.7-5.1c-.3-.5-.4-1.1-.4-1.6v-.6c-.8-.1-1.5-.5-2.1-1.2l-3.3-3.9c-.5-.6-.8-1.3-.9-2.1h-.5l-5.6-.6c-.7-.1-1.4-.4-1.9-.8-.5.5-1.1.8-1.9.8l-5.6.6h-.5c0 .8-.3 1.5-.9 2.1l-3.3 3.9c-.5.6-1.3 1-2.1 1.2v.6c0 .6-.1 1.1-.4 1.6l-2.7 5.1c-.3.5-.7 1-1.2 1.3.5.6.7 1.2.7 1.8v.4l-.5 5.1c-.1.7-.3 1.3-.7 1.8C7.5 33.1 8 34 8 35v6c0 1.7-1.3 3-3 3h-.2z" fill="#4D545D"/><path d="M48.8 34h-.7c-.6 0-1-.4-1-1s.4-1 1-1c.1 0 .3 0 .4-.1.5-.2 1.1.1 1.2.7.1.2.1.5 0 .7-.1.4-.5.7-.9.7zM18.2 7.8c-.5 0-1-.1-1.5-.4-1-.5-1.7-1.6-1.7-2.8 0-1.4.9-2.6 2.2-3l2.8-1c1.2-.4 2.5-.6 3.8-.6.9 0 1.7.3 2.3.9.6.6.9 1.4.9 2.3V4c0 1.6-1.2 3-2.9 3.2l-5.6.6h-.3zM23.8 2c-1.1 0-2.2.2-3.2.5l-2.8.9c-.5.2-.8.7-.8 1.2 0 .4.3.9.6 1.1.2.1.4.1.7.1l5.6-.6c.6-.1 1.1-.6 1.1-1.2v-.8c0-.3-.1-.6-.3-.8-.2-.2-.5-.4-.9-.4zM3.9 34c-.3 0-.6 0-.9-.1-1.7-.4-2.8-2.1-2.7-3.8L.8 25c.2-1.8 1.7-3.2 3.6-3.2.2 0 .5 0 .7.1.1 0 .2.1.4.1h.1c.1 0 .2 0 .3.1 1.2.5 2.1 1.8 2.1 3.2v.4l-.5 5.1C7.3 32.6 5.7 34 3.9 34zm.5-10.2c-.8 0-1.5.6-1.6 1.4l-.5 5.1c-.1.7.4 1.4 1.2 1.6 1 .3 1.9-.4 2-1.3l.5-5.1v-.1c0-.6-.3-1.1-.9-1.4-.1 0-.1 0-.2-.1-.1 0-.2 0-.3-.1h-.2z" fill="#4D545D"/><path d="M5.4 24h-.2c-.1 0-.2 0-.3-.1-.1 0-.3-.1-.5-.2-.4-.3-.6-.8-.4-1.3.2-.5.7-.7 1.2-.6l.3.1c.1.1.2.1.3.1.5.2.7.7.6 1.2-.1.5-.5.8-1 .8zM5 44H3c-1.7 0-3-1.3-3-3v-6c0-1.7 1.3-3 3-3h2c1.7 0 3 1.3 3 3v6c0 1.7-1.3 3-3 3zM3 34c-.6 0-1 .4-1 1v6c0 .6.4 1 1 1h2c.6 0 1-.4 1-1v-6c0-.6-.4-1-1-1H3zm23 11c-.6 0-1-.4-1-1V19c0-.6.4-1 1-1s1 .4 1 1v25c0 .6-.4 1-1 1z" fill="#4D545D"/><path d="M5.8 24c-.2 0-.4 0-.6-.1-.1 0-.1 0-.2-.1l-.3-.1c-.1 0-.1 0-.2-.1-.8-.4-1.5-1.1-1.8-2-.3-.9-.2-1.9.2-2.8l2.7-5.1c.6-1.1 1.7-1.8 2.9-1.8.5 0 1.1.1 1.5.4.1 0 .2.1.3.2.1 0 .1.1.1.1.1 0 .1.1.2.1.7.6 1.1 1.6 1.1 2.6 0 .6-.1 1.1-.4 1.6L8.6 22c-.5 1.3-1.6 2-2.8 2zm-.1-2h.1c.5 0 .9-.3 1.1-.7l2.7-5.1c.1-.2.2-.4.2-.7 0-.4-.2-.8-.5-1.1 0 0-.1 0-.1-.1-.1 0-.1-.1-.2-.1-.6-.3-1.4-.1-1.7.6l-2.7 5.1c-.2.4-.2.8-.1 1.2.1.3.4.6.7.8l.3.1h.2z" fill="#4D545D"/><path d="M5.4 24h-.2c-.1 0-.2 0-.3-.1-.1 0-.3-.1-.5-.2-.4-.3-.6-.8-.4-1.3.2-.5.7-.7 1.2-.6l.3.1c.1.1.2.1.3.1.5.2.7.7.6 1.2-.1.5-.5.8-1 .8zm4.5-9.3c-.2 0-.4-.1-.5-.2l-.1-.1-.3-.3c-.4-.4-.4-.9-.1-1.3.3-.4.9-.5 1.3-.3.1.1.2.1.3.2.1 0 .1.1.2.2.4.4.4.9.1 1.3-.3.3-.6.5-.9.5z" fill="#4D545D"/><path d="M11.2 15c-.6 0-1.2-.2-1.7-.5l-.1-.1s-.1 0-.1-.1c-.1 0-.1-.1-.2-.1-.7-.6-1.2-1.5-1.3-2.5-.1-.9.2-1.9.8-2.6l3.3-3.9c.7-.8 1.6-1.2 2.6-1.2 1.5 0 2.8 1 3.3 2.4.1.4.2.8.2 1.1 0 .8-.3 1.7-.9 2.3l-3.3 3.9c-.7.9-1.6 1.3-2.6 1.3zm-.7-2.2c.5.3 1.3.2 1.8-.4l3.3-3.9c.3-.4.4-.8.4-1 0-.2 0-.3-.1-.5-.2-.5-.6-1-1.4-1-.4 0-.8.2-1.1.5l-3.3 3.9c-.4.4-.4.8-.4 1.1 0 .4.2.8.5 1 .1.2.2.2.3.3z" fill="#4D545D"/><path d="M9.9 14.7c-.2 0-.4-.1-.5-.2l-.1-.1-.3-.3c-.4-.4-.4-.9-.1-1.3.3-.4.9-.5 1.3-.3.1.1.2.1.3.2.1 0 .1.1.2.2.4.4.4.9.1 1.3-.3.3-.6.5-.9.5zm23.9-6.9h-.3l-5.6-.6C26.2 7 25 5.7 25 4v-.8c0-.9.3-1.7.9-2.3.6-.6 1.4-.9 2.3-.9 1.3 0 2.6.2 3.8.6l2.8.9C36.1 2 37 3.2 37 4.6c0 1.2-.7 2.3-1.7 2.8-.5.2-1 .4-1.5.4zM28.2 2c-.4 0-.7.2-.8.3-.3.3-.4.6-.4.9V4c0 .6.5 1.1 1.1 1.2l5.6.6c.2 0 .5 0 .7-.1.3-.3.6-.7.6-1.1 0-.5-.3-1-.8-1.1l-2.8-.9c-1-.4-2.1-.6-3.2-.6zm19.9 32c-1.9 0-3.4-1.4-3.6-3.2l-.5-5.1v-.4c0-1.4.9-2.7 2.2-3.3.1 0 .2-.1.3-.1h.2c.1-.1.2-.1.3-.1.2 0 .4-.1.7-.1 1.9 0 3.4 1.4 3.6 3.2l.5 5.1c.2 1.7-1 3.3-2.7 3.8-.3.2-.6.2-1 .2zm-1.2-10.1c-.5.3-.9.8-.9 1.4v.1l.5 5.2c.1.8.8 1.4 1.6 1.4.1 0 .3 0 .4-.1.8-.2 1.3-.9 1.2-1.6l-.5-5.1c-.1-.9-1-1.5-1.9-1.4-.1 0-.2.1-.3.1h-.1z" fill="#4D545D"/><path d="M46.6 24c-.4 0-.8-.3-1-.7-.1-.5.1-1 .6-1.2.1 0 .1-.1.2-.1s.3-.1.4-.1c.5-.1 1 .2 1.1.7.2.5-.1 1-.5 1.2-.1.1-.3.1-.4.2-.1 0-.2.1-.3.1 0-.1-.1-.1-.1-.1zM49 44h-2c-1.7 0-3-1.3-3-3v-6c0-1.7 1.3-3 3-3h2c1.7 0 3 1.3 3 3v6c0 1.7-1.3 3-3 3zm-2-10c-.6 0-1 .4-1 1v6c0 .6.4 1 1 1h2c.6 0 1-.4 1-1v-6c0-.6-.4-1-1-1h-2z" fill="#4D545D"/><path d="M46.2 24c-1.2 0-2.3-.7-2.9-1.8l-2.7-5.1c-.3-.5-.4-1.1-.4-1.6 0-1 .4-2 1.2-2.6 0 0 .1-.1.2-.1 0 0 .1 0 .1-.1.1-.1.2-.1.3-.2.5-.3 1-.4 1.6-.4 1.2 0 2.3.7 2.9 1.8l2.7 5.1c.5.9.5 1.8.2 2.8-.3.9-1 1.6-1.8 2h-.5c-.1 0-.1 0-.2.1-.3.1-.5.1-.7.1zm-3.5-9.5c-.3.3-.5.7-.5 1.1 0 .2.1.5.2.7l2.7 5.1c.2.4.7.7 1.1.7h.2c.1 0 .2-.1.3-.1.3-.2.5-.4.7-.8.1-.4.1-.8-.1-1.2l-2.7-5.1c-.3-.6-1.1-.9-1.7-.6 0 0-.1.1-.2.1v.1z" fill="#4D545D"/><path d="M42.1 14.6c-.3 0-.6-.1-.8-.4-.3-.4-.3-.9 0-1.3l.2-.2c.1-.1.2-.2.3-.2.4-.2 1-.1 1.3.3.3.4.3 1-.1 1.3-.1.1-.2.2-.3.2l-.1.1c-.1.2-.3.2-.5.2zm4.5 9.4c-.4 0-.8-.3-1-.7-.1-.5.1-1 .6-1.2.1 0 .1-.1.2-.1s.3-.1.4-.1c.5-.1 1 .2 1.1.7.2.5-.1 1-.5 1.2-.1.1-.3.1-.4.2-.1 0-.2.1-.3.1 0-.1-.1-.1-.1-.1z" fill="#4D545D"/><path d="M40.8 15c-1 0-2-.4-2.6-1.2l-3.3-3.9c-.6-.7-.9-1.5-.9-2.4 0-.4.1-.8.2-1.1C34.7 5 36 4 37.5 4c1 0 2 .4 2.6 1.2l3.3 3.9c.6.7.9 1.7.8 2.6-.1 1-.5 1.9-1.3 2.5-.1 0-.1.1-.2.1l-.1.1-.1.1c-.5.3-1.1.5-1.7.5zm-3.3-9c-.8 0-1.2.5-1.4 1-.1.2-.1.4-.1.5 0 .3.1.6.4 1l3.3 3.9c.4.5 1.2.6 1.8.4 0 0 .1 0 .1-.1l.2-.2c.3-.3.5-.6.5-1 0-.3 0-.7-.4-1.1l-3.3-3.9c-.3-.3-.7-.5-1.1-.5z" fill="#4D545D"/><path d="M42.1 14.6c-.3 0-.6-.1-.8-.4-.3-.4-.3-.9 0-1.3l.2-.2c.1-.1.2-.2.3-.2.4-.2 1-.1 1.3.3.3.4.3 1-.1 1.3-.1.1-.2.2-.3.2l-.1.1c-.1.2-.3.2-.5.2z" fill="#4D545D"/></g><defs><clipPath id="clip0"><path fill="#fff" d="M0 0h55v52H0z"/></clipPath></defs></svg>