<svg width="46" height="46" fill="none" xmlns="http://www.w3.org/2000/svg"><g clip-path="url(#clip0)"><path d="M23.01 0C9.884 0-.736 3.593.036 16.97.705 28.373 4.6 36.486 8.083 41.36c3.586 5.01 7.206 6.478 9.42 1.805 1.286-2.733 3.225-5.617 5.49-5.617s4.204 2.901 5.49 5.617c2.214 4.673 5.834 3.205 9.42-1.805 3.483-4.875 7.395-13.005 8.047-24.391C46.756 3.593 36.118 0 23.01 0z" fill="url(#paint0_radial)"/><path d="M28.83 43.002h0l-11.328.164-.346-.164s0 0 0 0c-.535 1.13-1.135 1.844-1.758 2.233-.611.381-1.275.47-1.998.288-1.488-.374-3.22-1.891-5.005-4.385C4.95 36.317 1.083 28.272.418 16.948c-.19-3.293.323-5.957 1.38-8.104C2.854 6.7 4.465 5.048 6.51 3.796 10.618 1.282 16.467.383 23.01.383c6.535 0 12.383.899 16.488 3.412 2.044 1.253 3.654 2.904 4.707 5.049 1.054 2.146 1.56 4.81 1.362 8.103h0c-.647 11.307-4.53 19.37-7.976 24.191-1.785 2.494-3.517 4.011-5.006 4.385-.723.181-1.386.093-1.997-.288-.623-.39-1.223-1.103-1.758-2.233z" stroke="#fff" stroke-opacity=".13" stroke-width=".767"/><path d="M14.929 6.393c7.772 1.586 16.9 8.873 22.596 4.301 4.136-3.323 1.202-7.91-6.262-10.087C28.706.17 25.91 0 23.01 0 9.884 0-.736 3.593.036 16.97-.067 8.35 6.366 4.639 14.929 6.393z" fill="url(#paint1_radial)"/><path d="M38.965 7.946c-.167.822-.696 1.659-1.68 2.45-2.668 2.141-6.18 1.546-10.148.097-1.339-.49-2.701-1.064-4.08-1.646-.655-.276-1.313-.554-1.974-.825-2.042-.836-4.097-1.6-6.077-2.004-4.344-.89-8.208-.407-10.986 1.455a9.203 9.203 0 00-2.953 3.214 12.6 12.6 0 01.73-1.843C2.855 6.7 4.466 5.048 6.512 3.796 10.618 1.282 16.467.383 23.01.383c2.878 0 5.644.167 8.166.598 3.682 1.077 6.168 2.728 7.243 4.443.532.85.713 1.704.546 2.522z" stroke="#fff" stroke-opacity=".13" stroke-width=".767"/><path d="M17.501 43.166c1.287-2.732 3.226-5.617 5.49-5.617 2.197 0 4.05 2.682 5.337 5.313-3.072-6.342-4.118-14.338-9.214-21.287-7.67-10.476-13.537-8.046-15.46-4.386-3.002 5.718-1.08 16.261 4.428 24.19 3.603 4.992 7.206 6.46 9.42 1.787z" fill="url(#paint2_linear)"/><path d="M18.805 21.801h0c2.514 3.43 4.035 7.123 5.313 10.772.33.943.646 1.886.958 2.82.407 1.219.81 2.424 1.236 3.6l-.026-.03c-.926-1.03-2.035-1.797-3.294-1.797-1.3 0-2.448.823-3.401 1.915-.962 1.1-1.786 2.54-2.436 3.921-.536 1.13-1.135 1.844-1.756 2.233-.61.382-1.272.47-1.993.29-1.487-.372-3.219-1.884-5.012-4.368-2.72-3.918-4.556-8.484-5.34-12.771-.786-4.298-.505-8.266.94-11.019h0c.905-1.723 2.72-3.132 5.2-2.904 2.504.23 5.801 2.135 9.61 7.338z" stroke="#fff" stroke-opacity=".13" stroke-width=".767"/></g><defs><radialGradient id="paint0_radial" cx="0" cy="0" r="1" gradientUnits="userSpaceOnUse" gradientTransform="matrix(43.1175 0 0 42.3902 11.748 7.324)"><stop stop-color="#C3A99C"/><stop offset=".284" stop-color="#FDF6F3"/><stop offset=".529" stop-color="#C3A99C"/><stop offset=".743" stop-color="#E9DDD8"/><stop offset="1" stop-color="#EDDCD4"/></radialGradient><radialGradient id="paint1_radial" cx="0" cy="0" r="1" gradientUnits="userSpaceOnUse" gradientTransform="matrix(39.8975 0 0 39.2245 12.18 7.749)"><stop stop-color="#DBC3B8"/><stop offset=".247" stop-color="#C3A99C"/><stop offset=".567" stop-color="#D0C6C1"/><stop offset=".829" stop-color="#C3A99C"/><stop offset="1" stop-color="#C3A99C"/></radialGradient><linearGradient id="paint2_linear" x1="3.054" y1="32.756" x2="22.325" y2="27.065" gradientUnits="userSpaceOnUse"><stop stop-color="#C3A99C"/><stop offset=".42" stop-color="#EBE6E3"/><stop offset="1" stop-color="#DDCEC6"/></linearGradient><clipPath id="clip0"><path fill="#fff" d="M0 0h46v46H0z"/></clipPath></defs></svg>