<svg version="1.0" xmlns="http://www.w3.org/2000/svg" width="682.667" height="682.667" viewBox="0 0 512 512"><path d="M219.5 94.1c-24.4 2.4-45.9 7.2-62.4 13.8-36.5 14.6-56.4 38.2-62.7 74.3-1.3 7.3-1.5 13.3-1.1 28.3 1.4 48.2 13.2 95.1 34.8 138.5 14.3 28.7 30.6 51.4 44.5 61.8 19.4 14.5 33.9 10.1 46-14 6.5-13 12.3-21.4 19.3-28.1 6.9-6.6 11.6-8.9 18.3-8.9 12.3 0 24.7 12.6 38.1 38.8 7.5 14.5 14.7 20.4 24.9 20.4 13.9 0 29.9-13.3 47.3-39.5 28-42.1 44.9-91.7 51.1-149.8 2.1-20 1.5-43.7-1.5-55.2-10.4-40.1-38.2-63.7-88.2-74.9-21.5-4.8-32.2-5.8-66.9-6.1-17.9-.2-36.5.1-41.5.6z"/></svg>