<svg width="30" height="30" fill="none" xmlns="http://www.w3.org/2000/svg"><path d="M8.275 24.2l1.025.599a11.267 11.267 0 005.7 1.534A11.333 11.333 0 103.666 15c0 2.034.534 3.985 1.536 5.7l.598 1.026-.925 3.402 3.4-.928zM.839 29.167l1.915-7.038a14.102 14.102 0 01-1.921-7.13C.833 7.177 7.175.834 15 .834 22.824.833 29.166 7.176 29.166 15S22.824 29.167 15 29.167a14.102 14.102 0 01-7.126-1.92l-7.035 1.92zM9.887 8.353a4.93 4.93 0 01.57-.006c.077.006.154.014.23.023.226.025.474.163.557.353.422.957.833 1.922 1.23 2.89.088.215.035.491-.132.76-.115.182-.24.358-.373.527-.16.206-.504.583-.504.583s-.14.167-.086.375c.02.08.085.194.144.29l.084.135c.362.605.85 1.218 1.445 1.796.17.165.335.333.514.49a8.515 8.515 0 002.224 1.417l.007.003.357.156c.088.037.179.07.27.093a.495.495 0 00.52-.184c1.026-1.242 1.12-1.323 1.128-1.323v.003a.683.683 0 01.536-.18.735.735 0 01.25.057c.753.344 1.984.88 1.984.88l.825.37c.138.067.264.224.269.376a2.73 2.73 0 01-.019.528c-.045.367-.156.808-.266 1.039a1.634 1.634 0 01-.298.428c-.143.15-.299.286-.467.408a5.289 5.289 0 01-.177.127 7.093 7.093 0 01-.543.312 2.82 2.82 0 01-1.18.326c-.262.014-.524.034-.788.02-.01 0-.804-.124-.804-.124a13.385 13.385 0 01-5.44-2.898c-.32-.282-.616-.585-.92-.887-1.26-1.254-2.212-2.607-2.79-3.885a4.916 4.916 0 01-.47-2.003 3.866 3.866 0 01.8-2.38c.103-.133.2-.272.37-.432.18-.17.293-.26.416-.323.164-.082.343-.13.526-.142v.002z" fill="#4D545D"/></svg>