<svg width="151" height="151" fill="none" xmlns="http://www.w3.org/2000/svg"><path d="M136.744 82.003l2.948-.684.366-3.802-2.762-1.237.088-.907 9.023 4.16-.103 1.067-9.648 2.324.088-.92zm8.866-2.022l-4.968-2.232-.333 3.455 5.301-1.223zm-.957 12.116l-4-1.218-.047.154 2.667 5.617-.342 1.13-2.738-5.892-6.244 3.184.323-1.065 6.027-3.068.046-.154-4.666-1.42.249-.822 8.974 2.733-.249.821zm-4.137 12.696l-.422.747-7.588-4.307-2.563 4.54 7.587 4.306-.421.747-7.588-4.307-.527.934-2.756-1.688.369-.653 2.238 1.27 3.512-6.22 8.159 4.631zm-8.908 14.747l-.587.625-5.881-5.562 1.959 9.729-.579.615-6.815-6.446.588-.625 5.88 5.562-1.949-9.739.569-.605 6.815 6.446zm-17.286 9.57l-2.094 1.424 2.38 3.519 2.095-1.424c.613-.417.991-.863 1.133-1.338.135-.47-.017-1.031-.458-1.682s-.906-1.004-1.397-1.06c-.493-.043-1.046.144-1.659.561zm2.734 4.089l-2.782 1.891-5.256-7.77.709-.482 2.155 3.186 1.807-1.229-.117-4.572.843-.573.016 4.689c.742-.483 1.432-.65 2.072-.501.638.161 1.189.585 1.655 1.273 1.031 1.525.664 2.887-1.102 4.088zm-9.138 5.602l-.976.475-2.895-6.341.687-.335 3.184 6.201zm-3.407-7.061l-.988.481-.672-1.387.988-.481.672 1.387zm-16.015 4.114l1.564 2.59 3.727-.832.32-3.01.89-.198-1.158 9.87-1.047.233-5.198-8.452.902-.201zm4.67 7.801l.582-5.416-3.388.756 2.806 4.66zm-11.756 2.826l-.097-4.18-.161.004-4.5 4.287-1.178.027 4.736-4.44-4.98-4.938 1.112-.026 4.802 4.768.161-.004-.113-4.876.858-.02.217 9.378-.858.02zm-13.601-.003l-.84-.17 1.728-8.552-5.109-1.038-1.728 8.552-.841-.171 1.729-8.551-1.051-.214.745-3.144.735.149-.51 2.522 7 1.422-1.858 9.195zm-16.694-3.917l-.775-.367 3.449-7.323-8.621 4.875-.764-.361 3.998-8.487.775.367-3.45 7.323 8.634-4.869.751.355-3.997 8.487zM36.723 129.04l-1.996-1.559-2.607 3.355 1.997 1.559c.584.456 1.124.679 1.618.669.488-.016.973-.335 1.455-.956.483-.621.675-1.173.576-1.658-.11-.484-.458-.954-1.043-1.41zm-3.038 3.867l-2.652-2.07 5.756-7.408.676.528-2.36 3.037 1.722 1.345 4.303-1.52.803.627-4.444 1.461c.686.558 1.057 1.165 1.113 1.821.044.658-.19 1.314-.7 1.971-1.128 1.453-2.535 1.523-4.218.208zm-8.096-6.959l-.752-.782 5.121-4.728.53.55-4.899 4.96zm5.646-5.439l-.762-.792 1.108-1.072.762.792-1.108 1.072zm-8.842-13.955l-1.97 2.3 1.952 3.283 2.955-.641.466.784-9.725 1.999-.548-.922 6.398-7.598.472.795zm-5.945 6.891l5.32-1.148-1.773-2.984-3.547 4.132zm-6.394-10.393L14 101.669l-.053-.152-5.46-2.957-.388-1.113 5.678 3.136 3.166-6.265.366 1.05-3.059 6.043.053.152 4.604-1.614.282.81-8.852 3.103-.283-.81zM5.916 90.365l-.099-.852 8.666-1.01-.6-5.178-8.666 1.01-.098-.853 8.666-1.009-.124-1.065 3.22-.267.087.746-2.556.297.822 7.096-9.318 1.085zM4.418 72.993l.109-.85 8.029 1.026-7.304-6.703.107-.837 9.306 1.19-.109.85-8.03-1.026 7.303 6.716-.106.824-9.305-1.19zm8.328-17.857l.861-2.382-3.993-1.45-.861 2.381c-.252.698-.296 1.28-.133 1.749.166.46.619.823 1.358 1.092.739.268 1.323.281 1.753.038.425-.254.763-.73 1.015-1.428zm-4.614-1.705l1.144-3.163 8.817 3.204-.291.806-3.615-1.313-.743 2.054 2.777 3.633-.347.957-2.764-3.784c-.318.825-.779 1.366-1.384 1.621-.611.244-1.307.224-2.088-.06-1.73-.628-2.232-1.947-1.506-3.955zm4.169-10.048l.513-.957 6.06 3.447-.361.673-6.212-3.163zm6.896 3.73l.52-.97 1.356.732-.519.968-1.357-.73zm10.317-12.491l-2.79-1.168-2.514 2.875 1.518 2.62-.6.686-4.892-8.656.706-.807 9.18 3.754-.608.696zm-8.37-3.54l2.728 4.718 2.285-2.613-5.013-2.106zm7.741-9.243l2.541 3.32.128-.098 1.102-6.123.935-.719-1.204 6.388 6.927 1.046-.882.678-6.683-1.014-.127.098 2.965 3.874-.68.523-5.702-7.45.68-.523zm10.794-8.003l.778-.36 3.658 7.92 4.729-2.196-3.659-7.92.778-.361 3.659 7.92.972-.451 1.257 2.977-.68.316-1.08-2.336-6.478 3.008-3.934-8.517zm15.998-6.884l.842-.161 1.513 7.951 4.108-9.026.83-.159 1.753 9.216-.843.161-1.513-7.952-4.12 9.03-.817.155-1.753-9.215zM75.17 9.315l2.532.078.131-4.246-2.532-.078c-.74-.023-1.308.115-1.702.416-.385.301-.589.844-.613 1.63-.024.786.146 1.346.511 1.679.375.324.932.498 1.674.52zm.18-4.915l3.362.104-.289 9.376-.857-.026.118-3.845-2.183-.067-2.583 3.768-1.018-.032 2.731-3.803c-.883-.046-1.54-.316-1.972-.812-.423-.505-.621-1.173-.596-2.003.057-1.84 1.153-2.726 3.287-2.66zm10.667.783l1.07.188-1.356 6.837-.753-.132 1.04-6.893zm-1.36 7.721l1.082.19-.265 1.518-1.082-.19.265-1.518zm15.641 6.105l.249-3.018-3.505-1.517-2.02 2.25-.837-.361 6.712-7.317.984.426-.735 9.904-.848-.367zm.782-9.066l-3.64 4.046 3.185 1.38.455-5.426zm11.333 4.688l-2.381 3.438.132.091 6.153-.81.968.673-6.435.794 1.116 6.933-.913-.635-1.072-6.69-.132-.092-2.778 4.01-.704-.49 5.342-7.712.704.49zm10.77 7.816l.581.63-6.403 5.927 3.531 3.835 6.403-5.926.581.631-6.403 5.926.726.788-2.443 2.115-.508-.552 1.888-1.747-4.838-5.255 6.885-6.372zm11.308 12.992l.414.751-7.084 3.917 9.842 1.097.407.74-8.209 4.54-.414-.752 7.084-3.917-9.849-1.108-.4-.728 8.209-4.54zm3.79 19.361l.707 2.433 4.078-1.192-.707-2.432c-.207-.712-.514-1.209-.921-1.49-.405-.273-.985-.299-1.74-.078-.755.22-1.234.556-1.438 1.006-.193.457-.186 1.041.021 1.753zm4.729-1.353l.939 3.23-9.005 2.63-.239-.823 3.692-1.078-.61-2.098-4.38-1.29-.285-.977 4.46 1.42c-.229-.855-.175-1.565.163-2.129.35-.558.923-.954 1.721-1.187 1.766-.516 2.948.251 3.544 2.302zm2.488 10.228l.154 1.075-6.92.833-.109-.756 6.875-1.152zm-7.761 1.103l.155 1.088-1.525.22-.156-1.088 1.526-.22z" fill="#C3A99C"/></svg>