<svg width="67" height="67" fill="none" xmlns="http://www.w3.org/2000/svg"><g clip-path="url(#clip0)"><path d="M27.502 50.286H12.495a1.358 1.358 0 01-1.358-1.358v-3.354a1.358 1.358 0 011.358-1.358h15.007a1.358 1.358 0 011.358 1.358v3.355a1.358 1.358 0 01-1.358 1.357zm-14.556-1.811h14.101V46.03h-14.1v2.445zm29.35 16.715H24.505a2.706 2.706 0 01-1.992-4.535l4.214-4.595a.903.903 0 011.488.23.906.906 0 01-.154.994l-4.213 4.595a.895.895 0 00.657 1.5h17.791a.895.895 0 00.66-1.5l-4.214-4.595a.906.906 0 111.336-1.224l4.212 4.595a2.705 2.705 0 01-1.994 4.534z" fill="#4D545D"/><path d="M33.4 58.548a19.988 19.988 0 01-16.453-8.653.906.906 0 011.492-1.027A18.144 18.144 0 1045.782 25.34a.906.906 0 011.234-1.326A19.947 19.947 0 0133.4 58.548z" fill="#4D545D"/><path d="M33.4 53.75a15.12 15.12 0 01-9.883-3.68.905.905 0 111.184-1.37 13.327 13.327 0 0018.195-19.455.906.906 0 111.288-1.273 15.01 15.01 0 014.375 10.62A15.176 15.176 0 0133.4 53.751z" fill="#4D545D"/><path d="M41.345 30.014a6.014 6.014 0 11-.002-12.027 6.014 6.014 0 01.002 12.027zm0-10.215a4.203 4.203 0 10-.001 8.406 4.203 4.203 0 00.001-8.406z" fill="#4D545D"/><path d="M41.345 26.917a2.916 2.916 0 110-5.832 2.916 2.916 0 010 5.832zm0-4.022a1.105 1.105 0 100 2.211 1.105 1.105 0 000-2.21z" fill="#4D545D"/><path d="M31.508 34.596h-.029a.905.905 0 01-.634-.285l-8.687-9.275a.905.905 0 01.043-1.279L44.315 3.036a.905.905 0 011.279.04l8.687 9.275a.903.903 0 01-.043 1.28l-8.33 7.802a.905.905 0 11-1.238-1.322l7.67-7.184-7.446-7.953L24.098 24.46l7.448 7.954 5.704-5.342a.904.904 0 111.239 1.32l-6.365 5.966a.905.905 0 01-.616.239z" fill="#4D545D"/><path d="M51.716 11.838a.906.906 0 01-.661-.287l-4.872-5.2a.905.905 0 01.042-1.28l2.98-2.793a1.737 1.737 0 012.453.08l3.737 3.989a1.738 1.738 0 01-.08 2.453l-2.983 2.794a.905.905 0 01-.616.244zm-3.592-6.066l3.633 3.879 2.264-2.122-3.633-3.876-2.264 2.119zM24.79 36.76h-.059a1.719 1.719 0 01-1.21-.544l-3.736-3.989a1.736 1.736 0 01.08-2.453l4.243-3.975a.904.904 0 011.28.041l4.872 5.2a.904.904 0 01-.042 1.28l-4.244 3.977c-.321.3-.745.465-1.184.463zm-3.633-5.72l3.635 3.877 3.53-3.305-3.633-3.878-3.532 3.305z" fill="#4D545D"/><path opacity=".5" d="M56 61H40c-2.2 0-4-1.8-4-4V41c0-2.2 1.8-4 4-4h16c2.2 0 4 1.8 4 4v16c0 2.2-1.8 4-4 4z" fill="#C3A99C" fill-opacity=".85"/></g><defs><clipPath id="clip0"><path fill="#fff" d="M0 0h67v67H0z"/></clipPath></defs></svg>