<svg width="75" height="60" fill="none" xmlns="http://www.w3.org/2000/svg"><path opacity=".5" d="M71 48H55c-2.2 0-4-1.8-4-4V28c0-2.2 1.8-4 4-4h16c2.2 0 4 1.8 4 4v16c0 2.2-1.8 4-4 4z" fill="#C3A99C" fill-opacity=".85"/><g clip-path="url(#clip0)" fill="#4D545D"><path d="M22.02 6.05h-.102l.312-.421a.822.822 0 10-1.32-.975l-1.278 1.729a.82.82 0 00.66 1.308h.078l-.41.54a.82.82 0 001.309.991l1.406-1.856a.82.82 0 00-.656-1.316h.002zm3.152-.088h2.447a.82.82 0 000-1.64h-2.447a.82.82 0 000 1.64zm6.613 2.076a.82.82 0 00-.82-.82h-5.793a.82.82 0 000 1.64h5.794a.82.82 0 00.819-.82z"/><path d="M53.677 13.744a2.375 2.375 0 00-2.227-1.585h-3.01l-.876-4.673A2.546 2.546 0 0046.13 5.62c-2.32-1.078-8.34-3.436-17.293-3.914a58.615 58.615 0 00-6.417 0C13.462 2.184 7.448 4.542 5.123 5.62a2.54 2.54 0 00-1.43 1.861L.057 26.864a3.964 3.964 0 003.01 4.603c3.689.853 11.526 2.283 22.56 2.283 5.1.017 10.194-.31 15.249-.98.619-.066 1.237-.165 1.852-.262a73.145 73.145 0 005.367-1.022c.295-.034.58-.128.839-.277a3.955 3.955 0 002.269-4.345l-1.87-9.961h2.118a2.367 2.367 0 002.203-1.519 5.312 5.312 0 014.706 5.269V32.53a5.309 5.309 0 01-5.301 5.302H6.928a6.942 6.942 0 000 13.884h.042a2.377 2.377 0 002.218 1.552h1.12a7.48 7.48 0 100-4.744h-1.12a2.37 2.37 0 00-2.218 1.551h-.042a5.302 5.302 0 010-10.603H29.34a6.593 6.593 0 00-2.269 4.974v.656a6.62 6.62 0 006.216 6.595 2.369 2.369 0 002.222 1.57h1.12a7.482 7.482 0 100-4.743h-1.12a2.37 2.37 0 00-2.213 1.533 4.98 4.98 0 01-4.584-4.955v-.656a4.98 4.98 0 014.973-4.974h19.374A6.95 6.95 0 0060 32.531V20.653a6.944 6.944 0 00-6.323-6.91zM17.536 3.839a56.716 56.716 0 0116.181 0v6.895c-2.587.59-5.235.87-7.889.835-2.79.03-5.572-.268-8.292-.886V3.839zm-3.15.553a40.85 40.85 0 011.51-.29v7.223a.822.822 0 00.609.792 36.46 36.46 0 009.323 1.092c3.01.048 6.013-.305 8.93-1.05a.818.818 0 00.6-.792V4.101c.506.09 1.012.183 1.51.291v8.658c-1.2.478-4.824 1.669-11.04 1.669-6.258 0-10.153-1.21-11.442-1.683V4.392zm-1.167 9.942c.178.08 4.453 2.025 12.61 2.025 8.17 0 12.074-1.955 12.233-2.039a.816.816 0 00.446-.731V9.787a3.063 3.063 0 012.208 2.55l1.27 9.966c-.68.117-1.79.305-3.188.506a2.895 2.895 0 00-1.246-1.312 4.434 4.434 0 00-5.035.665 2.95 2.95 0 00-.834 1.453c-.83.07-1.645.122-2.438.165-.384-1.322-1.86-2.311-3.618-2.311-1.768 0-3.249 1.003-3.624 2.334-.66-.033-1.331-.07-2.015-.122-.268-1.308-1.57-2.423-3.263-2.644a4.233 4.233 0 00-2.625.46 2.906 2.906 0 00-1.298 1.425 97.82 97.82 0 01-3.957-.62l1.603-10.058a3.021 3.021 0 012.297-2.475v3.82a.829.829 0 00.474.745zm24.164 9.394c.094.726-.769 1.462-1.885 1.608-.75.103-2.109-.108-2.235-1.064-.127-.957 1.134-1.51 1.884-1.608.75-.099 2.11.112 2.236 1.064zm-9.68.731c0 .731-.951 1.35-2.076 1.35s-2.077-.619-2.077-1.35c0-.731.952-1.35 2.077-1.35s2.076.619 2.076 1.35zm-9.31-.187a1.168 1.168 0 01-.632.801 2.623 2.623 0 01-1.603.263c-.75-.099-2.011-.652-1.885-1.608a1.157 1.157 0 01.633-.802 2.785 2.785 0 012.382-.051c.534.23 1.19.731 1.106 1.397zm31.196 2.897c.26 1.397-.728 2.467-2.022 2.76-1.742.393-3.5.71-5.265.984-3.455.526-6.936.873-10.427 1.04a120.79 120.79 0 01-6.25.156c-10.87 0-18.567-1.406-22.19-2.24a2.325 2.325 0 01-1.767-2.7l.61-3.24c.029.006.058.01.088.01h3.047a.82.82 0 000-1.64h-2.83l.3-1.6c.019 0 .037.005.056.005h2.944a.82.82 0 100-1.64H3.187l.408-2.161h2.536a.82.82 0 100-1.64H3.9l.277-1.463H6.58a.82.82 0 100-1.64H4.486l.272-1.463H7.03a.82.82 0 100-1.64H5.067l.24-1.285a.917.917 0 01.51-.666 38.193 38.193 0 016.928-2.353V8.09a4.674 4.674 0 00-3.918 3.896l-1.73 10.851a.821.821 0 00.656.938c.019.005 2.03.389 4.992.797.853 2.803 5.62 3.384 7.008.74.806.057 1.599.103 2.372.14.51 1.163 1.884 1.998 3.502 1.998 1.626 0 3.009-.849 3.515-2.02.886-.047 1.8-.108 2.733-.183.269.531.692.97 1.214 1.256a4.128 4.128 0 002.011.502c.205 0 .41-.015.614-.043 1.636-.215 2.911-1.26 3.234-2.517a89.697 89.697 0 004.107-.67.82.82 0 00.656-.91l-1.369-10.734a4.697 4.697 0 00-3.834-4.022V4.753a38.41 38.41 0 016.933 2.353.927.927 0 01.51.675l.24 1.275h-1.566a.82.82 0 100 1.64h1.87l.277 1.463h-1.697a.82.82 0 100 1.64h2.006l.272 1.463h-1.828a.82.82 0 100 1.64h2.138l.271 1.463h-1.959a.82.82 0 000 1.641h2.269l.276 1.463h-2.095a.82.82 0 100 1.64h2.4l.764 4.06zm1.861-11.907h-2.428l-.234-1.26-.038-.202h2.7a.731.731 0 110 1.462zM11.723 49.537a5.84 5.84 0 110 2.72 5.56 5.56 0 010-2.72zm-2.536.628h.765a7.625 7.625 0 000 1.463h-.764a.731.731 0 110-1.463zm28.857-.628a5.84 5.84 0 110 2.72 5.56 5.56 0 010-2.72zm-2.536.628h.764a7.619 7.619 0 000 1.463h-.764a.732.732 0 010-1.463z"/></g><defs><clipPath id="clip0"><path fill="#fff" d="M0 0h60v60H0z"/></clipPath></defs></svg>