<svg width="56" height="72" fill="none" xmlns="http://www.w3.org/2000/svg"><path opacity=".5" d="M51.392 71.4H35.078C32.835 71.4 31 69.57 31 67.333V51.067C31 48.83 32.835 47 35.078 47h16.314c2.243 0 4.079 1.83 4.079 4.067v16.266c0 2.237-1.836 4.067-4.079 4.067z" fill="#C3A99C" fill-opacity=".85"/><path d="M39.658 9.036h-7.57V1.894a.83.83 0 00-.258-.597.9.9 0 00-.623-.248H13.36a.913.913 0 00-.624.248.816.816 0 00-.258.599v7.14H4.91a5.02 5.02 0 00-3.47 1.382A4.628 4.628 0 000 13.751v44.483c0 1.25.518 2.45 1.439 3.334A5.02 5.02 0 004.91 62.95h34.748a5.02 5.02 0 003.47-1.383 4.628 4.628 0 001.44-3.332V13.75a4.628 4.628 0 00-1.44-3.333 5.02 5.02 0 00-3.47-1.382zM13.36 15.564h24.408v40.858H6.8V15.564h6.562zm.881-12.822h16.084v11.13H14.242V2.742zm28.563 55.492c0 .801-.333 1.57-.923 2.136-.59.567-1.39.886-2.224.886H4.91a3.22 3.22 0 01-2.225-.886 2.966 2.966 0 01-.922-2.136V13.75c0-.802.332-1.57.922-2.136a3.218 3.218 0 012.225-.887h7.57v3.144H5.917a.91.91 0 00-.623.247.844.844 0 00-.258.599v42.549a.817.817 0 00.257.6.883.883 0 00.624.248H38.65a.912.912 0 00.624-.248.843.843 0 00.258-.598v-42.55a.817.817 0 00-.258-.599.91.91 0 00-.623-.248h-6.563v-3.143h7.57a3.22 3.22 0 012.224.886c.59.567.922 1.335.923 2.137v44.483z" fill="#4D545D"/><path d="M19.498 9.153h1.905v1.828c0 .225.092.44.258.599a.9.9 0 00.623.247.9.9 0 00.623-.247.83.83 0 00.258-.599V9.153h1.904a.9.9 0 00.623-.248.83.83 0 00.259-.599.83.83 0 00-.259-.598.9.9 0 00-.623-.248h-1.904V5.631a.83.83 0 00-.258-.598.9.9 0 00-.623-.248.9.9 0 00-.623.248.83.83 0 00-.258.598V7.46h-1.904a.9.9 0 00-.624.248.83.83 0 00-.258.598c0 .225.093.44.258.599a.9.9 0 00.623.248zm-6.66 20.534a.907.907 0 001.238-.097l4.91-5.493a.816.816 0 00.155-.957.852.852 0 00-.217-.27.89.89 0 00-.665-.2.908.908 0 00-.608.326l-4.342 4.856-1.786-1.45a.892.892 0 00-.643-.198.91.91 0 00-.6.297.837.837 0 00-.205.617.821.821 0 00.309.576l2.454 1.993zm9.446-4.447h11.33a.9.9 0 00.624-.248.83.83 0 00.258-.598.83.83 0 00-.258-.599.9.9 0 00-.623-.248H22.284a.9.9 0 00-.623.248.83.83 0 00-.258.599c0 .224.092.44.258.598a.9.9 0 00.623.248zm0 3.801h7.68a.9.9 0 00.623-.248.83.83 0 00.258-.598.83.83 0 00-.258-.599.9.9 0 00-.623-.247h-7.68a.9.9 0 00-.623.247.83.83 0 00-.258.599c0 .224.092.44.258.598a.9.9 0 00.623.248zm-9.446 10.344a.906.906 0 001.238-.096l4.91-5.494a.825.825 0 00-.094-1.193.906.906 0 00-1.243.09l-4.34 4.858-1.786-1.45a.89.89 0 00-.643-.198.91.91 0 00-.6.297.838.838 0 00-.205.617.822.822 0 00.309.576l2.454 1.993zm9.446-4.447h11.33a.9.9 0 00.624-.248.83.83 0 00.258-.599.83.83 0 00-.258-.598.9.9 0 00-.623-.248H22.284a.9.9 0 00-.623.248.83.83 0 00-.258.598c0 .225.092.44.258.599a.9.9 0 00.623.248zm0 3.801h7.68a.9.9 0 00.623-.248.83.83 0 00.258-.598.83.83 0 00-.258-.599.9.9 0 00-.623-.248h-7.68a.9.9 0 00-.623.248.83.83 0 00-.258.599c0 .224.092.44.258.598a.9.9 0 00.623.248zm-9.446 10.344a.907.907 0 001.238-.097l4.91-5.493a.824.824 0 00-.094-1.194.905.905 0 00-1.243.091l-4.34 4.858-1.786-1.45a.89.89 0 00-.647-.21.91.91 0 00-.608.297.815.815 0 00-.105.945c.055.1.13.188.22.259l2.455 1.994zm9.446-4.447h11.33a.9.9 0 00.624-.248.83.83 0 00.258-.598.83.83 0 00-.258-.599.9.9 0 00-.623-.248H22.284a.9.9 0 00-.623.248.83.83 0 00-.258.599c0 .224.092.44.258.598a.9.9 0 00.623.248zm0 3.801h7.68a.9.9 0 00.623-.248.83.83 0 00.258-.598.83.83 0 00-.258-.599.9.9 0 00-.623-.247h-7.68a.9.9 0 00-.623.248.83.83 0 00-.258.598c0 .224.092.44.258.598a.9.9 0 00.623.248z" fill="#4D545D"/></svg>