<svg width="40" height="40" fill="none" xmlns="http://www.w3.org/2000/svg"><g clip-path="url(#clip0)" fill="#C3A99C"><path d="M4.615 17.692C2.066 17.692 0 18.725 0 20c0 1.274 2.066 2.308 4.615 2.308 2.55 0 4.616-1.034 4.616-2.308 0-1.275-2.067-2.308-4.616-2.308z" fill-opacity=".08"/><path d="M7.83 10.31C5.623 9.034 3.317 8.895 2.68 10c-.638 1.104.635 3.032 2.843 4.306 2.207 1.275 4.513 1.413 5.15.31.638-1.104-.635-3.032-2.843-4.307z" fill-opacity=".06"/><path d="M14.306 5.523C13.032 3.315 11.104 2.043 10 2.679c-1.104.638-.965 2.944.31 5.151 1.274 2.208 3.202 3.48 4.305 2.844 1.104-.638.966-2.944-.309-5.151z" fill-opacity=".85"/><path d="M22.308 4.615C22.308 2.066 21.275 0 20 0c-1.274 0-2.308 2.066-2.308 4.615 0 2.55 1.034 4.616 2.308 4.616 1.275 0 2.308-2.067 2.308-4.616z" fill-opacity=".9"/><path d="M29.69 7.83c1.275-2.207 1.414-4.513.31-5.15-1.104-.638-3.032.635-4.306 2.843-1.275 2.207-1.413 4.513-.31 5.15 1.104.638 3.032-.635 4.307-2.843z" fill-opacity=".8"/><path d="M34.477 14.306c2.208-1.274 3.48-3.202 2.844-4.306-.638-1.104-2.944-.965-5.151.31-2.208 1.274-3.48 3.202-2.844 4.305.638 1.104 2.944.966 5.151-.309z" fill-opacity=".7"/><path d="M35.385 22.308C37.934 22.308 40 21.275 40 20c0-1.274-2.066-2.308-4.615-2.308-2.55 0-4.616 1.034-4.616 2.308 0 1.275 2.067 2.308 4.616 2.308z" fill-opacity=".6"/><path d="M32.17 29.69c2.207 1.275 4.513 1.414 5.15.31.638-1.104-.635-3.032-2.843-4.306-2.207-1.275-4.513-1.413-5.15-.31-.638 1.104.635 3.032 2.843 4.307z" fill-opacity=".5"/><path d="M25.694 34.477c1.274 2.208 3.202 3.48 4.306 2.844 1.104-.638.965-2.944-.31-5.151-1.274-2.208-3.202-3.48-4.305-2.844-1.104.638-.966 2.944.309 5.151z" fill-opacity=".4"/><path d="M17.692 35.385C17.692 37.934 18.725 40 20 40c1.274 0 2.308-2.066 2.308-4.615 0-2.55-1.034-4.616-2.308-4.616-1.275 0-2.308 2.067-2.308 4.616z" fill-opacity=".3"/><path d="M10.31 32.17c-1.275 2.207-1.414 4.513-.31 5.15 1.104.638 3.032-.635 4.306-2.843 1.275-2.207 1.413-4.513.31-5.15-1.104-.638-3.032.635-4.307 2.843z" fill-opacity=".2"/><path d="M5.523 25.694C3.315 26.968 2.043 28.896 2.679 30c.638 1.104 2.944.965 5.151-.31 2.208-1.274 3.48-3.202 2.844-4.305-.638-1.104-2.944-.966-5.151.309z" fill-opacity=".1"/></g><defs><clipPath id="clip0"><path fill="#fff" transform="rotate(-90 20 20)" d="M0 0h40v40H0z"/></clipPath></defs></svg>