<svg width="22" height="22" fill="none" xmlns="http://www.w3.org/2000/svg"><path d="M21.5 16.157v4.125a1.167 1.167 0 01-1.085 1.164c-.51.035-.926.054-1.248.054C8.857 21.5.5 13.143.5 2.833c0-.322.017-.738.054-1.248A1.167 1.167 0 011.718.5h4.125a.583.583 0 01.581.525c.027.268.052.482.075.644a16.218 16.218 0 001.41 4.668.532.532 0 01-.172.661l-2.518 1.8a15.222 15.222 0 007.985 7.984L15 14.269a.539.539 0 01.669-.174 16.22 16.22 0 004.667 1.406c.162.023.375.049.641.075a.583.583 0 01.524.58H21.5z" fill="#C3A99C"/></svg>