<svg width="24" height="24" fill="none" xmlns="http://www.w3.org/2000/svg"><path d="M6.462 19.576l.845.494A9.279 9.279 0 0012 21.333 9.333 9.333 0 102.667 12c0 1.675.44 3.282 1.264 4.695l.493.844-.762 2.801 2.8-.764zm-6.124 4.09l1.577-5.795A11.613 11.613 0 01.333 12C.333 5.557 5.556.333 12 .333S23.667 5.557 23.667 12c0 6.444-5.224 11.667-11.667 11.667a11.614 11.614 0 01-5.868-1.581l-5.794 1.58zm7.451-17.14a3.95 3.95 0 01.47-.005c.064.005.127.012.19.019.185.021.39.134.458.29.348.79.686 1.584 1.013 2.38.072.178.029.405-.109.627-.094.15-.197.295-.307.434-.131.17-.415.48-.415.48s-.115.137-.071.309c.016.065.07.16.119.239l.069.11a7.39 7.39 0 001.19 1.48c.14.135.276.274.423.404a7.014 7.014 0 001.832 1.166l.006.003.294.128c.072.03.147.057.223.077a.408.408 0 00.428-.152c.845-1.023.921-1.09.928-1.09v.003a.563.563 0 01.442-.148c.07.005.14.017.206.046.62.284 1.633.726 1.633.726l.68.305c.114.055.218.184.221.309.005.078.012.204-.015.435-.037.302-.128.665-.22.855-.062.13-.145.249-.244.352a2.772 2.772 0 01-.386.337 4.267 4.267 0 01-.145.105 5.849 5.849 0 01-.447.256c-.3.16-.632.251-.972.268-.216.012-.432.028-.649.017-.009 0-.662-.102-.662-.102a11.024 11.024 0 01-4.48-2.387c-.264-.232-.508-.482-.758-.73-1.038-1.032-1.822-2.147-2.298-3.199a4.048 4.048 0 01-.386-1.65 3.184 3.184 0 01.658-1.96c.085-.11.166-.224.304-.355.149-.14.242-.215.343-.266.135-.068.283-.108.433-.117l.001.001z" fill="#4D545D"/></svg>