<svg width="24" height="24" fill="none" xmlns="http://www.w3.org/2000/svg"><path d="M12 8.5a3.5 3.5 0 100 7 3.5 3.5 0 000-7zm0-2.333a5.833 5.833 0 110 11.667 5.833 5.833 0 010-11.667zm7.583-.292a1.458 1.458 0 11-2.916 0 1.458 1.458 0 012.916 0zM12 2.667c-2.886 0-3.358.008-4.7.067-.915.044-1.529.166-2.098.388-.506.196-.872.43-1.26.82a3.372 3.372 0 00-.822 1.26c-.221.572-.344 1.184-.386 2.098-.06 1.288-.067 1.738-.067 4.7 0 2.886.008 3.358.067 4.7.043.914.166 1.529.386 2.097.199.508.432.873.82 1.26.393.392.758.627 1.26.82.576.223 1.19.347 2.1.389 1.288.06 1.738.067 4.7.067 2.886 0 3.358-.008 4.7-.067.913-.043 1.528-.166 2.097-.386a3.405 3.405 0 001.26-.82c.393-.393.628-.758.821-1.26.222-.575.346-1.19.388-2.1.06-1.287.067-1.738.067-4.7 0-2.886-.008-3.358-.067-4.7-.043-.913-.166-1.529-.388-2.098a3.397 3.397 0 00-.82-1.26 3.365 3.365 0 00-1.26-.821c-.571-.222-1.185-.345-2.097-.387-1.289-.06-1.739-.067-4.701-.067zm0-2.334c3.17 0 3.565.012 4.809.07 1.242.059 2.088.254 2.833.543.77.296 1.418.698 2.067 1.345a5.727 5.727 0 011.345 2.067c.288.744.484 1.59.543 2.833.054 1.244.07 1.64.07 4.809 0 3.17-.012 3.565-.07 4.809-.059 1.242-.255 2.088-.543 2.833a5.697 5.697 0 01-1.345 2.067 5.733 5.733 0 01-2.067 1.345c-.744.288-1.59.484-2.833.543-1.244.054-1.64.07-4.809.07-3.17 0-3.565-.012-4.809-.07-1.243-.059-2.088-.255-2.833-.543a5.705 5.705 0 01-2.067-1.345 5.721 5.721 0 01-1.345-2.067c-.29-.744-.484-1.59-.543-2.833-.055-1.244-.07-1.64-.07-4.809 0-3.17.012-3.565.07-4.809.059-1.244.253-2.088.543-2.833A5.693 5.693 0 012.29 2.291 5.713 5.713 0 014.358.946c.745-.29 1.59-.484 2.833-.543C8.435.35 8.831.333 12 .333z" fill="#4D545D"/></svg>