<svg width="30" height="30" fill="none" xmlns="http://www.w3.org/2000/svg"><path d="M16.416 26.245A11.334 11.334 0 0015 3.667a11.333 11.333 0 00-1.417 22.578v-8.412H10.75V15h2.833v-2.343c0-1.894.198-2.581.567-3.274a3.862 3.862 0 011.609-1.608c.541-.29 1.214-.465 2.39-.54.466-.03 1.07.007 1.81.113v2.692h-.71c-1.298 0-1.835.061-2.155.233a1.03 1.03 0 00-.445.444c-.17.32-.233.638-.233 1.938V15h3.542l-.708 2.833h-2.834v8.412zM15 29.167C7.175 29.167.833 22.824.833 15S7.175.833 15 .833C22.824.833 29.166 7.176 29.166 15S22.824 29.167 15 29.167z" fill="#4D545D"/></svg>