<svg width="57" height="54" fill="none" xmlns="http://www.w3.org/2000/svg"><path opacity=".5" d="M53 39H37c-2.2 0-4-1.8-4-4V19c0-2.2 1.8-4 4-4h16c2.2 0 4 1.8 4 4v16c0 2.2-1.8 4-4 4z" fill="#C3A99C" fill-opacity=".85"/><g clip-path="url(#clip0)"><path d="M45.337 27c0-10.111-8.226-18.337-18.337-18.337C16.889 8.663 8.663 16.889 8.663 27c0 4.761 1.824 9.104 4.81 12.367l-3.9 3.9c-.569.568-.158 1.536.636 1.536.23 0 .461-.088.637-.264l3.905-3.905a18.265 18.265 0 0012.25 4.704C37.111 45.337 45.337 37.11 45.337 27zm-9.488-.9H27.9V11.307c2.506 1.978 7.584 6.932 7.95 14.793zM26.1 10.487V26.1h-7.948c.258-5.435 2.808-9.466 4.966-11.935a.9.9 0 00-1.355-1.185c-2.362 2.702-5.154 7.128-5.413 13.12h-5.863c.453-8.404 7.21-15.16 15.613-15.613zM10.487 27.9h5.863c.325 7.643 4.73 12.78 7.642 15.363-7.352-1.357-13.088-7.627-13.505-15.363zm7.663 0h7.95v14.784c-4.453-3.535-7.67-8.717-7.95-14.784zm9.75 15.613V27.9h7.948c-.267 5.624-2.978 9.758-5.273 12.279a.9.9 0 101.33 1.212c2.51-2.757 5.478-7.293 5.745-13.491h2.85a.9.9 0 000-1.8h-2.85c-.324-7.64-4.727-12.78-7.638-15.362C37.697 12.158 43.538 18.91 43.538 27c0 8.817-6.936 16.044-15.638 16.513zm19.343 2.57L42.88 41.72a.9.9 0 00-1.273 1.273l4.387 4.386C44.2 50.252 46.275 54 49.67 54A4.336 4.336 0 0054 49.669c0-3.476-3.904-5.523-6.757-3.586zm2.426 6.117a2.534 2.534 0 01-2.531-2.531 2.534 2.534 0 012.53-2.531 2.534 2.534 0 012.532 2.53 2.534 2.534 0 01-2.531 2.532zM6.62 8.006l4.387 4.387a.9.9 0 101.273-1.273L7.918 6.757C9.854 3.904 7.807 0 4.33 0A4.336 4.336 0 000 4.331C0 7.73 3.754 9.798 6.62 8.006zM4.331 1.8a2.534 2.534 0 012.531 2.531 2.534 2.534 0 01-2.53 2.531A2.534 2.534 0 011.8 4.332 2.534 2.534 0 014.331 1.8zm0 43.538A4.336 4.336 0 000 49.667 4.336 4.336 0 004.331 54a4.336 4.336 0 004.331-4.331 4.336 4.336 0 00-4.33-4.331zm0 6.862A2.534 2.534 0 011.8 49.669a2.534 2.534 0 012.531-2.531 2.534 2.534 0 012.531 2.53 2.534 2.534 0 01-2.53 2.532zm38.55-39.92l4.362-4.362C50.096 9.854 54 7.807 54 4.33A4.336 4.336 0 0049.669 0c-3.399 0-5.467 3.754-3.675 6.62l-4.387 4.387a.9.9 0 101.273 1.273zM49.668 1.8A2.534 2.534 0 0152.2 4.331a2.534 2.534 0 01-2.531 2.531 2.534 2.534 0 01-2.531-2.53 2.534 2.534 0 012.53-2.532z" fill="#4D545D"/></g><defs><clipPath id="clip0"><path fill="#fff" d="M0 0h54v54H0z"/></clipPath></defs></svg>