<svg width="51" height="60" fill="none" xmlns="http://www.w3.org/2000/svg"><g clip-path="url(#clip0)"><path opacity=".5" d="M20 51H4c-2.2 0-4-1.8-4-4V31c0-2.2 1.8-4 4-4h16c2.2 0 4 1.8 4 4v16c0 2.2-1.8 4-4 4z" fill="#C3A99C" fill-opacity=".85"/><path d="M37.3 60c-2.4 0-4.5-1.6-5.1-4l-1.8-7.4c-.2-.9-.9-1.2-1.5-1.2s-1.3.3-1.5 1.2L25.7 56c-.3 1.1-.9 2.1-1.8 2.9-.9.7-2 1.1-3.2 1.1-2.5 0-4.6-1.7-5.1-4.1-.6-2.8-1.4-7-2.1-10.3-.6-2.9-1.7-5.3-3.4-7.3-2.3-2.8-3.4-6.3-3-9.9.5-5.5 4.4-10.2 9.7-11.8.3-.1.6 0 .8.1.2.2.4.4.4.7.4 3.1 5.3 5.6 11 5.6s10.6-2.5 11-5.6c0-.3.2-.6.4-.7.2-.2.6-.2.8-.1 5.3 1.6 9.2 6.3 9.7 11.8.3 3.6-.8 7.1-3 9.9-1.6 2-2.7 4.4-3.4 7.3-.7 3.3-1.5 7.5-2.1 10.3-.2 1.2-.9 2.2-1.8 3-.9.7-2.1 1.1-3.3 1.1zM29 45.5c1.7 0 3 1.1 3.4 2.7l1.8 7.4c.4 1.4 1.6 2.4 3.1 2.4.7 0 1.4-.2 2-.7.6-.5 1-1.1 1.1-1.8.6-2.8 1.4-7 2.1-10.3.7-3.2 1.9-6 3.8-8.2 1.9-2.4 2.9-5.3 2.6-8.4-.4-4.3-3.3-8.1-7.3-9.7C40.4 22.4 35.2 25 29 25c-6.2 0-11.4-2.6-12.7-6.2-4 1.6-6.9 5.4-7.3 9.7-.3 3.1.7 6 2.6 8.4 1.8 2.2 3.1 5 3.8 8.2.7 3.3 1.5 7.5 2.1 10.3.3 1.5 1.6 2.6 3.1 2.6.7 0 1.4-.2 2-.7.6-.4 1-1 1.1-1.8l1.8-7.4c.5-1.6 1.8-2.6 3.5-2.6zM29 9c-6.9 0-12.4-3.2-13-7.4-.1-.5.2-.9.7-1.1.9-.3 1.7-.4 2.6-.5 1.9-.2 3.8.1 5.6.7 2.6.9 5.4.9 8 0 1.8-.6 3.7-.9 5.6-.7.9.1 1.8.2 2.6.5.6.2.9.7.9 1.1C41.4 5.8 35.9 9 29 9zM18.3 2.2C19.3 4.9 23.9 7 29 7s9.7-2.1 10.7-4.8c-.4-.1-.9-.2-1.3-.2-1.7-.1-3.3.1-4.8.6-3 1-6.3 1.1-9.3 0-1.5-.5-3.1-.7-4.8-.6-.4.1-.8.1-1.2.2z" fill="#4D545D"/><path d="M29 19c-.6 0-1-.4-1-1V8c0-.6.4-1 1-1s1 .4 1 1v10c0 .6-.4 1-1 1z" fill="#4D545D"/><path d="M29 19c-.3 0-.5-.1-.7-.3l-4-4c-.4-.4-.4-1 0-1.4.4-.4 1-.4 1.4 0l3.3 3.3 3.3-3.3c.4-.4 1-.4 1.4 0 .4.4.4 1 0 1.4l-4 4c-.2.2-.4.3-.7.3z" fill="#4D545D"/></g><defs><clipPath id="clip0"><path fill="#fff" d="M0 0h51v60H0z"/></clipPath></defs></svg>