<svg width="56" height="51" fill="none" xmlns="http://www.w3.org/2000/svg"><path opacity=".5" d="M51 50H35c-2.2 0-4-1.8-4-4V30c0-2.2 1.8-4 4-4h16c2.2 0 4 1.8 4 4v16c0 2.2-1.8 4-4 4z" fill="#C3A99C" fill-opacity=".85"/><path d="M30.3 51c-2.4 0-4.5-1.6-5.1-4l-1.8-7.4c-.2-.9-.9-1.2-1.5-1.2s-1.3.3-1.5 1.2L18.7 47c-.3 1.1-.9 2.1-1.8 2.9-.9.7-2 1.1-3.2 1.1-2.5 0-4.6-1.7-5.1-4.1-.6-2.9-1.5-7-2.1-10.4-.6-2.9-1.7-5.3-3.4-7.3-2.3-2.8-3.4-6.3-3-9.9.5-6.4 5.8-11.7 12.3-12.2 1.9-.2 3.8.1 5.6.7 2.6.9 5.4.9 8 0 1.8-.6 3.7-.8 5.6-.7 1.4.1 2.8.5 4.1 1 4.6 2 7.8 6.3 8.2 11.3.1 1.6 0 3.2-.4 4.8-.5 1.9-1.4 3.6-2.6 5.1-1.6 2-2.7 4.4-3.4 7.3-.7 3.3-1.5 7.5-2.1 10.3-.2 1.2-.9 2.2-1.8 3-.9.7-2.1 1.1-3.3 1.1zM22 36.5c1.7 0 3 1.1 3.4 2.7l1.8 7.4c.4 1.4 1.6 2.4 3.1 2.4.7 0 1.4-.2 2-.7.6-.5 1-1.1 1.1-1.8.6-2.8 1.4-7 2.1-10.3.7-3.2 1.9-6 3.8-8.2 1.1-1.3 1.8-2.7 2.2-4.3.4-1.3.5-2.7.4-4.1-.4-4.2-3.1-7.9-7-9.6-1.1-.5-2.3-.8-3.5-.9-1.7-.1-3.3 0-4.8.6-3 1.1-6.3 1-9.3 0-1.5-.5-3.1-.7-4.8-.6C7.1 9.5 2.5 14 2 19.5c-.3 3.1.6 6 2.6 8.4 1.8 2.2 3.1 5 3.8 8.2.7 3.3 1.5 7.5 2.1 10.3.3 1.5 1.6 2.6 3.1 2.6.7 0 1.4-.2 2-.7.6-.4 1-1 1.1-1.8l1.8-7.4c.5-1.6 1.8-2.6 3.5-2.6z" fill="#4D545D"/><path d="M22 15.7c-5.3 0-9.6-2.6-9.8-2.7-.5-.3-.6-.9-.3-1.4.3-.5.9-.6 1.4-.3 0 0 4 2.4 8.7 2.4 4.8 0 8.7-2.3 8.7-2.4.5-.3 1.1-.1 1.4.3.3.5.1 1.1-.3 1.4-.2.2-4.5 2.7-9.8 2.7zm20.6 9.2h-.1C37 24.1 33 19.4 33 14c0-1.9.5-3.8 1.5-5.5.3-.4.8-.6 1.3-.4 4.6 2 7.8 6.3 8.2 11.3.1 1.6 0 3.2-.4 4.8-.2.4-.6.7-1 .7zm-6.8-14.6c-.5 1.2-.8 2.4-.8 3.7 0 4.1 2.9 7.7 6.8 8.7.2-1 .2-2.1.2-3.2-.4-3.8-2.8-7.3-6.2-9.2zM40 7c-.6 0-1-.4-1-1V1c0-.6.4-1 1-1s1 .4 1 1v5c0 .6-.4 1-1 1zm15 10h-5c-.6 0-1-.4-1-1s.4-1 1-1h5c.6 0 1 .4 1 1s-.4 1-1 1zm-4.4 10.6c-.3 0-.5-.1-.7-.3l-3.5-3.5c-.4-.4-.4-1 0-1.4.4-.4 1-.4 1.4 0l3.5 3.5c.4.4.4 1 0 1.4-.2.2-.4.3-.7.3zM47.1 9.9c-.3 0-.5-.1-.7-.3-.4-.4-.4-1 0-1.4l3.5-3.5c.4-.4 1-.4 1.4 0 .4.4.4 1 0 1.4l-3.5 3.5c-.2.2-.5.3-.7.3z" fill="#4D545D"/></svg>