<svg width="103" height="60" fill="none" xmlns="http://www.w3.org/2000/svg"><path d="M17.614 28.053c19.832-14.768 43.937-13.881 67.712-14.205 9.153-23.096 21.219-49.919 46.827-55.978 10.128-2.397 23.235-.095 29.542 9.032 6.307 9.127-.018 21.956-6.355 29.573-16.057 19.265-41.588 22.167-65.377 22.618-1.628 3.99-3.262 8.009-5.018 11.986-.996 2.137-1.938 4.357-3.137 6.766a61.821 61.821 0 0119.301 2.416 1.396 1.396 0 01.277 2.455c-.294.151-.629.2-.954.14a138.297 138.297 0 00-15.187-1.958 21.355 21.355 0 00-5.335.519c-1.821 4.28-8.325 16.537-20.07 20.402-12.489 4.108-15.5-10.914-5.534-16.766a55.422 55.422 0 0120.712-6.7c2.325-4.677 4.38-9.513 6.32-14.345l1.89-4.8-4.895.023c-18.578.107-38.477.851-54.844 10.613-7.908 4.738-15.31 11.88-17.503 21.145-2.192 9.265 3.624 21.792 14.858 19.75 2.78-.51 4.197 3.678 1.355 4.275-10.035 2.1-19.38-5.189-21.11-15.13-2.256-12.78 6.875-24.641 16.525-31.83zm103.374-17.916a64.076 64.076 0 0021.275-9.84c7.169-5.258 16.416-15.32 15.495-24.998-1.119-11.569-17.239-12.95-25.65-10.355-10.211 3.115-18.054 11.157-24.346 19.433-6.81 9.132-11.365 19.184-15.657 29.35a126.452 126.452 0 0028.883-3.59zM62.915 44.276c-2.31.943-10.133 4.156-10.488 9.129a3.59 3.59 0 00.597 2.51c1.164 1.622 4.155 2.067 7.448.919a22.552 22.552 0 004.934-4.2 45.871 45.871 0 007.186-9.54l.474-.922c-3.478.122-6.91.833-10.151 2.104z" fill="#fff" fill-opacity=".15"/></svg>