<svg width="24" height="24" fill="none" xmlns="http://www.w3.org/2000/svg"><path d="M13.167 21.261A9.334 9.334 0 0012 2.667a9.333 9.333 0 00-1.167 18.594v-6.928H8.5V12h2.333v-1.93c0-1.56.164-2.125.467-2.696a3.18 3.18 0 011.325-1.324c.446-.24 1-.383 1.969-.444.383-.025.88.005 1.49.093v2.217H15.5c-1.07 0-1.512.05-1.776.19a.848.848 0 00-.366.367c-.14.264-.191.525-.191 1.596V12h2.916l-.583 2.333h-2.333v6.928zM12 23.667C5.557 23.667.333 18.443.333 12S5.557.333 12 .333C18.444.333 23.667 5.557 23.667 12c0 6.444-5.224 11.667-11.667 11.667z" fill="#4D545D"/></svg>